<?xml version="1.0" encoding="UTF-8"?>
<!DOCTYPE svg PUBLIC "-//W3C//DTD SVG 1.1//EN" "http://www.w3.org/Graphics/SVG/1.1/DTD/svg11.dtd">
<!-- Creator: CorelDRAW -->
<svg xmlns="http://www.w3.org/2000/svg" xml:space="preserve" width="17.6388mm" height="17.6388mm" version="1.1" style="shape-rendering:geometricPrecision; text-rendering:geometricPrecision; image-rendering:optimizeQuality; fill-rule:evenodd; clip-rule:evenodd"
viewBox="0 0 1763.88 1763.88"
 xmlns:xlink="http://www.w3.org/1999/xlink"
 xmlns:xodm="http://www.corel.com/coreldraw/odm/2003">
 <defs>
  <style type="text/css">
   <![CDATA[
    .fil0 {fill:#264B68;fill-rule:nonzero}
    .fil1 {fill:#EAC268;fill-rule:nonzero}
   ]]>
  </style>
 </defs>
 <g id="Слой_x0020_1">
  <metadata id="CorelCorpID_0Corel-Layer"/>
  <path class="fil0" d="M1144.71 366.7l7.35 0.03c19.14,0.07 34.6,15.64 34.54,34.77l-0.57 159.6c-0.06,19.13 -15.63,34.6 -34.76,34.53l-7.36 -0.03c-19.11,-0.06 -34.58,-15.63 -34.51,-34.76l0.54 -159.61c0.08,-19.12 15.66,-34.59 34.79,-34.52z"/>
  <path class="fil0" d="M782.92 553.24l7.42 -7.43c13.03,-13.02 34.14,-13.02 47.16,0l92.8 92.81c13.03,13.01 13.03,34.13 0.01,47.14l-7.44 7.43c-13.01,13.02 -34.12,13.02 -47.14,0l-92.81 -92.81c-13.01,-13.02 -13.01,-34.13 0,-47.15z"/>
  <path class="fil0" d="M1363.39 639.64l95.57 -95.24c12.13,-12.07 31.74,-12.04 43.81,0.07l10.01 10.04c12.07,12.12 12.04,31.74 -0.07,43.81l-95.58 95.24c-12.1,12.06 -31.72,12.03 -43.79,-0.08l-10.03 -10.04c-12.05,-12.12 -12.02,-31.74 0.1,-43.81z"/>
  <path class="fil0" d="M295.91 932.66c118.12,-248.85 421.57,-318.67 621.86,-120.74 0.41,0.41 0.93,0.86 1.48,1.26 5.75,4.18 13.86,2.8 18.12,-3.06 0.41,-0.56 0.78,-1.16 1.09,-1.78 103.73,-210.1 420.83,-180.96 460.21,58.7 16.97,103.07 -20.65,187.51 -112.88,253.31 -8.57,6.3 -13.21,14.7 -13.91,25.2 -7.17,99.23 -55.74,175.7 -145.69,229.43 -36.92,22.05 -96.95,32.9 -180.07,32.55 -208.43,-0.88 -410.64,-0.53 -606.64,1.05 -64.57,0.35 -112.26,-6.3 -143.06,-19.95 -214.2,-96.34 -160.91,-416.59 73.24,-437.59 10.92,-0.8 21.02,-7.66 26.07,-17.97l0.18 -0.41zm1021.38 28.09c20.48,-48.82 15.05,-94.67 -16.27,-137.55 -84.53,-115.76 -224.96,-104.47 -295.05,13.65 -5.08,8.58 -2.71,13.57 7.09,14.96 113.75,14.7 189.17,65.72 226.27,153.04 19.95,46.9 39.81,46.9 59.59,0 8.22,-19.77 14.35,-34.47 18.37,-44.1zm-988.05 66.68c-86.62,-16.8 -148.4,18.02 -185.32,104.47 -25.73,60.11 5.25,133.88 56.17,171.42 27.83,20.65 61.69,30.88 101.59,30.71 212.98,-1.05 431.2,-0.62 654.68,1.31 51.1,0.35 93.71,-7.61 127.83,-23.89 117.08,-56.17 151.99,-206.06 67.2,-308.17 -57.22,-69.13 -129.58,-91.88 -217.08,-68.25 -8.58,2.45 -15.32,-0.09 -20.22,-7.62 -69.47,-106.22 -160.21,-157.23 -272.21,-153.03 -147.87,5.77 -246.22,86.62 -295.05,242.55 -2.62,8.75 -8.49,12.25 -17.59,10.5z"/>
  <path class="fil1" d="M1317.29 960.75c-4.02,9.63 -10.15,24.33 -18.37,44.1 -19.78,46.9 -39.64,46.9 -59.59,0 -37.1,-87.32 -112.52,-138.34 -226.27,-153.04 -9.8,-1.4 -12.17,-6.38 -7.09,-14.96 70.09,-118.12 210.52,-129.41 295.05,-13.65 31.32,42.88 36.75,88.73 16.27,137.55z"/>
  <path class="fil0" d="M1494.75 873.6l160.12 0c19.87,0.01 35.97,16.11 35.97,35.97l-0.01 3.67c0.01,19.86 -16.09,35.96 -35.95,35.96l-160.13 0c-19.85,0 -35.95,-16.1 -35.95,-35.96l-0.02 -3.67c0.02,-19.86 16.12,-35.96 35.98,-35.96z"/>
  <path class="fil0" d="M1364.43 1136.13l8.54 -8.54c12.62,-12.61 33.07,-12.61 45.68,-0.01l93.53 93.56c12.63,12.6 12.63,33.05 0.02,45.66l-8.56 8.54c-12.59,12.61 -33.04,12.61 -45.65,0l-93.56 -93.55c-12.6,-12.61 -12.6,-33.06 0.01,-45.66z"/>
 </g>
</svg>
