<?xml version="1.0" encoding="UTF-8"?>
<!DOCTYPE svg PUBLIC "-//W3C//DTD SVG 1.1//EN" "http://www.w3.org/Graphics/SVG/1.1/DTD/svg11.dtd">
<!-- Creator: CorelDRAW -->
<svg xmlns="http://www.w3.org/2000/svg" xml:space="preserve" width="17.6388mm" height="17.6388mm" version="1.1" style="shape-rendering:geometricPrecision; text-rendering:geometricPrecision; image-rendering:optimizeQuality; fill-rule:evenodd; clip-rule:evenodd"
viewBox="0 0 1763.88 1763.88"
 xmlns:xlink="http://www.w3.org/1999/xlink"
 xmlns:xodm="http://www.corel.com/coreldraw/odm/2003">
 <defs>
  <style type="text/css">
   <![CDATA[
    .fil0 {fill:white;fill-rule:nonzero}
    .fil1 {fill:#EAC268;fill-rule:nonzero}
   ]]>
  </style>
 </defs>
 <g id="Слой_x0020_1">
  <metadata id="CorelCorpID_0Corel-Layer"/>
  <path class="fil0" d="M923.56 558.8c18.37,-11.02 41.74,-16.53 60.11,-1.83 8.75,7 12.25,16.18 10.5,27.56 -1.75,10.85 -6.47,20.3 -14.17,28.35 -27.3,28 -54.34,54.77 -81.12,80.32 -6.65,6.29 -15.48,9.79 -24.65,9.79 -9.56,0 -18.73,-3.81 -25.47,-10.58l-82.18 -82.42c-6.82,-6.65 -10.58,-14.79 -11.28,-24.41 -1.84,-27.3 23.62,-46.73 49.61,-35.96 7.35,3.15 14.44,6.65 21.26,10.5 10.68,5.77 15.67,2.62 14.97,-9.45l-5.52 -80.33c-1.4,-18.72 6.65,-31.67 24.15,-38.85 6.65,-2.8 13.21,-3.59 19.69,-2.36 26.25,4.9 38.41,20.65 36.49,47.25l-5.52 74.29c-0.87,11.02 3.5,13.73 13.13,8.13z"/>
  <path class="fil0" d="M562.24 573.74l3.94 -2.62c16.79,-11.15 39.44,-6.58 50.59,10.2l78.73 118.51c11.16,16.78 6.59,39.43 -10.19,50.59l-3.95 2.61c-16.76,11.15 -39.42,6.58 -50.57,-10.2l-78.75 -118.51c-11.13,-16.78 -6.57,-39.44 10.22,-50.59z"/>
  <path class="fil0" d="M1185.98 570.68l4.39 2.88c16.72,11 21.37,33.46 10.39,50.18l-78.41 119.34c-10.97,16.73 -33.44,21.38 -50.15,10.4l-4.4 -2.89c-16.71,-10.98 -21.37,-33.44 -10.39,-50.16l78.4 -119.36c10.99,-16.71 33.45,-21.36 50.16,-10.38z"/>
  <path class="fil0" d="M420.7 767.67l124.69 67.42c17.86,9.66 24.51,31.96 14.86,49.81l-1.76 3.23c-9.64,17.86 -31.95,24.51 -49.79,14.86l-124.7 -67.43c-17.83,-9.64 -24.48,-31.95 -14.83,-49.79l1.73 -3.25c9.67,-17.84 31.97,-24.49 49.82,-14.84z"/>
  <path class="fil0" d="M1211.25 1021.17l186.63 -3.93c22.75,-0.53 37.72,9.97 44.89,31.5 3.68,11.55 -1.4,23.18 -15.22,34.91 -6.56,5.64 -15.53,9.04 -24.84,9.18l-1054.57 -0.26c-6.71,0.06 -13.53,-2.41 -18.98,-6.95 -30.57,-24.94 -26.34,-46.86 12.68,-65.76 3.42,-1.44 6.74,-2.11 10.02,-2.07l221.77 3.38c11.19,0.07 20.7,-7.58 22.88,-18.26 28.31,-133.72 135.93,-238.99 275.06,-243.97 161,-5.6 265.56,75.42 313.69,243.07 3.85,12.95 12.51,19.34 25.99,19.16zm-531.04 0.79l420 -0.52c2.61,0 4.73,-2.12 4.73,-4.73l-0.01 -0.79c0,0.36 0,0.29 0,0.27 0,-99.87 -95.1,-180.86 -212.36,-180.86 -0.05,0 -0.16,0 -0.21,0l-5.04 -0.01c-116.81,0.1 -211.78,81 -211.83,180.76l-0.01 1.16c0.01,2.61 2.13,4.73 4.74,4.73l-0.01 -0.01z"/>
  <path class="fil0" d="M1207.66 834.58l123.77 -66.92c17.98,-9.72 40.43,-3.03 50.16,14.95l1.5 2.77c9.72,17.99 3.03,40.45 -14.95,50.17l-123.78 66.92c-17.97,9.72 -40.43,3.03 -50.15,-14.95l-1.51 -2.78c-9.71,-17.98 -3.02,-40.44 14.96,-50.16z"/>
  <path class="fil1" d="M680.21 1021.96c-2.6,0.01 -4.72,-2.11 -4.72,-4.72l-0.01 -0.79c0.06,-100.13 95.03,-181.03 212.15,-181.12l4.42 -0.01c0.36,0.01 0.47,0.01 0.52,0.01 117.26,0 212.36,80.99 212.36,180.86 0,0.02 0,0.09 0,0.11l0 0.41c0.01,2.61 -2.11,4.73 -4.72,4.73l-420 0.52z"/>
  <path class="fil0" d="M626.2 1152.78l499.8 0.87c20.44,0.05 36.98,16.65 36.95,37.09l-0.01 1.04c-0.03,20.44 -16.63,36.98 -37.07,36.94l-499.8 -0.87c-20.43,-0.04 -36.97,-16.64 -36.93,-37.08l-0.02 -1.05c0.05,-20.43 16.65,-36.97 37.09,-36.93z"/>
  <path class="fil0" d="M783.44 1287.45l185.85 0.32c20.15,0.04 36.46,16.41 36.42,36.56l-0.01 3.15c-0.03,20.16 -16.4,36.47 -36.55,36.43l-185.85 -0.33c-20.13,-0.03 -36.44,-16.4 -36.4,-36.55l-0.01 -3.16c0.05,-20.15 16.42,-36.46 36.57,-36.42z"/>
 </g>
</svg>
