<?xml version="1.0" encoding="UTF-8"?>
<!DOCTYPE svg PUBLIC "-//W3C//DTD SVG 1.1//EN" "http://www.w3.org/Graphics/SVG/1.1/DTD/svg11.dtd">
<!-- Creator: CorelDRAW -->
<svg xmlns="http://www.w3.org/2000/svg" xml:space="preserve" width="17.6388mm" height="17.6388mm" version="1.1" style="shape-rendering:geometricPrecision; text-rendering:geometricPrecision; image-rendering:optimizeQuality; fill-rule:evenodd; clip-rule:evenodd"
viewBox="0 0 1763.88 1763.88"
 xmlns:xlink="http://www.w3.org/1999/xlink"
 xmlns:xodm="http://www.corel.com/coreldraw/odm/2003">
 <defs>
  <style type="text/css">
   <![CDATA[
    .fil0 {fill:white;fill-rule:nonzero}
   ]]>
  </style>
 </defs>
 <g id="Слой_x0020_1">
  <metadata id="CorelCorpID_0Corel-Layer"/>
  <path class="fil0" d="M1018.12 536.26c-73.76,-49.09 -172.99,15.49 -151.46,104.21 2.85,11.38 -1.13,23.44 -10.24,30.97 -16.1,12.95 -33.34,14.18 -51.71,3.68 -9.29,-5.14 -15.67,-14.69 -16.77,-25.37 -14.47,-154.18 138.57,-264.95 272.44,-179.9 117.34,74.55 111.04,248.06 -13.38,308.17 -30.98,14.88 -78.4,22.4 -142.28,22.58 -188.12,0.87 -376.34,0.87 -564.64,0 -22.57,-0.18 -38.41,-11.99 -47.51,-35.44 -1.4,-3.15 -1.92,-6.56 -1.57,-10.24 1.23,-16.95 15.29,-30.1 32.29,-30.19 209.65,-1.22 424.11,-1.66 643.38,-1.31 99.49,0 140.18,-127.84 51.45,-187.16z"/>
  <path class="fil0" d="M1411.08 823.7c74.55,-81.9 -21,-205.8 -112.87,-160.92 -48.83,23.63 -70.09,62.3 -63.79,116.03 2.98,24.5 -7.96,36.4 -32.81,35.7 -4.03,0 -6.65,-0.09 -7.88,-0.26 -24.67,-0.53 -36.92,-13.13 -36.75,-37.8 2.89,-305.29 425.78,-227.33 349.39,37.27 -23.27,81.03 -88.29,121.54 -195.04,121.54 -344.57,-0.18 -691.07,-0.26 -1039.5,-0.26 -24.5,0 -38.15,-12.08 -40.95,-36.23 -0.7,-4.9 0,-9.71 2.1,-14.44 6.83,-15.92 18.9,-23.97 36.23,-24.15 360.15,-0.52 718.55,-0.43 1075.2,0.27 22.22,0 44.45,-12.25 66.67,-36.75z"/>
  <path class="fil0" d="M1203.71 1251.05c97.39,-67.2 29.92,-186.64 -76.65,-185.85 -235.73,2.1 -474.34,2.36 -715.84,0.78 -23.97,-0.17 -41.47,-11.02 -52.5,-32.55 -6.47,-12.42 1.05,-24.85 22.57,-37.27 5.1,-2.9 11.08,-4.45 17.27,-4.46 241.19,-0.35 493.3,-0.53 756.32,-0.53 159.6,0 224.7,205.28 111.83,308.18 -100.28,91.61 -256.99,42.26 -294,-84 -8.58,-29.23 -9.63,-55.3 -3.15,-78.23 5.07,-18.72 17.41,-27.65 37.01,-26.77l14.96 0.52c14.5,0.59 25.95,12.51 25.95,27.02 0,2.13 -0.25,4.25 -0.75,6.32 -8.05,33.6 -0.35,63.09 23.1,88.46 41.48,45.15 86.1,51.28 133.88,18.38z"/>
 </g>
</svg>
