<?xml version="1.0" encoding="UTF-8"?>
<!DOCTYPE svg PUBLIC "-//W3C//DTD SVG 1.1//EN" "http://www.w3.org/Graphics/SVG/1.1/DTD/svg11.dtd">
<!-- Creator: CorelDRAW -->
<svg xmlns="http://www.w3.org/2000/svg" xml:space="preserve" width="17.6388mm" height="17.6388mm" version="1.1" style="shape-rendering:geometricPrecision; text-rendering:geometricPrecision; image-rendering:optimizeQuality; fill-rule:evenodd; clip-rule:evenodd"
viewBox="0 0 1763.88 1763.88"
 xmlns:xlink="http://www.w3.org/1999/xlink"
 xmlns:xodm="http://www.corel.com/coreldraw/odm/2003">
 <defs>
  <style type="text/css">
   <![CDATA[
    .fil0 {fill:#EAC268;fill-rule:nonzero}
   ]]>
  </style>
 </defs>
 <g id="Слой_x0020_1">
  <metadata id="CorelCorpID_0Corel-Layer"/>
  <path class="fil0" d="M831.07 409.32c11.9,-0.52 13.56,3.24 4.99,11.29 -123.64,115.24 -177.98,264.86 -124.69,424.2 35.53,107.1 107.54,183.58 216.04,229.43 144.37,60.9 279.3,20.73 401.89,-70.62 12.6,-9.27 17.32,-6.3 14.17,8.93 -39.9,197.05 -136.32,336.09 -289.27,417.11 -236.25,124.95 -531.57,58.8 -689.07,-159.86 -209.47,-291.64 -80.06,-734.48 282.72,-832.39 57.75,-15.57 118.82,-24.94 183.22,-28.09z"/>
  <path class="fil0" d="M1038.45 313.25c1.05,-7.35 4.28,-13.56 9.71,-18.64 12.07,-11.55 19.95,-9.19 23.62,7.09 7.18,31.67 25.73,42.35 55.65,32.02 10.68,-3.67 16.19,0.09 16.54,11.29 0,4.73 -2.1,8.31 -6.3,10.76 -32.37,18.9 -41.04,43.23 -25.99,72.98 8.4,16.8 4.12,21.35 -12.86,13.65 -5.25,-2.28 -9.97,-5.25 -14.17,-8.92 -12.95,-11.73 -26.87,-13.04 -41.74,-3.94 -8.58,5.25 -17.5,8.75 -26.78,10.5 -12.77,2.45 -16.27,-2.19 -10.5,-13.91 12.6,-25.9 6.74,-46.73 -17.58,-62.48 -5.25,-3.5 -8.4,-8.4 -9.45,-14.7 -0.35,-2.45 -0.18,-4.81 0.52,-7.09 0.08,-0.25 0.14,-0.43 0.19,-0.6 2.08,-6.03 8.55,-9.27 14.44,-7.24 0.23,0.08 0.46,0.17 0.68,0.26 7.64,2.95 15.67,3.29 24.07,1.02 10.37,-2.87 18.17,-11.46 19.96,-22.01l-0.01 -0.04z"/>
  <path class="fil0" d="M1405.42 606.72c10.5,2.1 21.44,3.33 32.81,3.68 50.93,1.05 55.3,15.84 13.13,44.36 -10.5,7 -20.21,14.96 -29.14,23.89 -6.12,5.92 -8.32,14.56 -5.94,22.6l13.03 46.44c8.05,28.7 -0.79,35.52 -26.51,20.47l-43.05 -25.72c-9.8,-5.6 -19.25,-4.99 -28.35,1.83 -14.35,11.03 -29.67,19.78 -45.94,26.25 -28.7,11.38 -35.96,3.33 -21.79,-24.15 23.63,-46.02 11.46,-79.53 -36.49,-100.53 -8.22,-3.68 -12.42,-9.98 -12.6,-18.9 0,-2.8 0.7,-5.43 2.1,-7.88 4.03,-7.17 10.07,-10.06 18.12,-8.66 47.6,8.22 77.08,-8.31 88.46,-49.61 10.85,-40.25 25.11,-41.48 42.79,-3.68l14.17 30.19c5.08,10.67 13.48,17.15 25.2,19.42z"/>
  <path class="fil0" d="M1015.61 709.36l6.56 1.05c16.8,2.45 19.34,9.89 7.61,22.31 -14.35,14.88 -18.46,32.73 -12.33,53.55 3.67,12.43 0.35,14.79 -9.98,7.09 -18.55,-14 -38.32,-14.17 -59.32,-0.52 -13.65,9.1 -18.64,5.68 -14.97,-10.24 5.08,-21.7 -0.61,-39.11 -17.06,-52.24 -9.8,-7.87 -8.49,-13.12 3.94,-15.75 22.4,-5.07 37.45,-18.37 45.15,-39.9 4.2,-12.07 9.71,-12.77 16.54,-2.1l17.06 25.99c3.85,6.12 9.45,9.71 16.8,10.76z"/>
 </g>
</svg>
