<?xml version="1.0" encoding="UTF-8"?>
<!DOCTYPE svg PUBLIC "-//W3C//DTD SVG 1.1//EN" "http://www.w3.org/Graphics/SVG/1.1/DTD/svg11.dtd">
<!-- Creator: CorelDRAW -->
<svg xmlns="http://www.w3.org/2000/svg" xml:space="preserve" width="17.6388mm" height="17.6388mm" version="1.1" style="shape-rendering:geometricPrecision; text-rendering:geometricPrecision; image-rendering:optimizeQuality; fill-rule:evenodd; clip-rule:evenodd"
viewBox="0 0 1763.88 1763.88"
 xmlns:xlink="http://www.w3.org/1999/xlink"
 xmlns:xodm="http://www.corel.com/coreldraw/odm/2003">
 <defs>
  <style type="text/css">
   <![CDATA[
    .fil0 {fill:white;fill-rule:nonzero}
    .fil1 {fill:#516F86;fill-rule:nonzero}
   ]]>
  </style>
 </defs>
 <g id="Слой_x0020_1">
  <metadata id="CorelCorpID_0Corel-Layer"/>
  <path class="fil0" d="M1171.68 575.13c31.24,5.77 63.79,-1.58 96.6,6.82 296.36,76.39 277.2,497.44 -25.46,549.15 -19.25,3.33 -65.63,3.41 -139.13,0.26 -14.45,-0.77 -25.41,-12.64 -25.2,-26.88l0 -10.92c0.01,-0.93 0.02,-1.5 0.05,-2.06 1.06,-20.27 18.24,-35.85 38.36,-34.79 0.63,0.03 1.26,0.08 1.88,0.15 71.84,6.44 119.57,4.77 143.2,-5.03 89.25,-37.45 137.37,-98.88 144.37,-184.28 9.72,-119.44 -94.23,-219.45 -210.26,-220.24 -16.27,0 -32.02,3.42 -47.25,10.24 -9.97,4.55 -18.11,2.36 -24.41,-6.56 -14.7,-20.65 -31.24,-40.25 -49.61,-58.8 -173.52,-176.4 -460.17,-90.56 -515.82,145.42 -1.57,7.35 -5.95,11.99 -13.12,13.92 -8.05,2.45 -16.19,1.75 -24.42,-2.1 -8.57,-3.85 -17.5,-5.08 -26.77,-3.68 -97.48,14 -147,69.56 -148.58,166.69 -1.31,75.07 77.18,151.46 156.45,147 25.55,-1.4 51.98,-1.14 79.28,0.79 13.19,1.04 23.54,11.73 24.16,24.94 0.17,3.32 0.34,6.56 0.51,9.71 0.35,21.17 -9.97,32.99 -30.97,35.43 -140.7,16.8 -235.81,-27.82 -285.34,-133.87 -68.51,-146.74 33.86,-301.88 191.63,-323.4 8.49,-1.14 16.19,-5.78 21.24,-12.82 14.72,-20.78 22.59,-47.03 37.29,-68.03 148.32,-211.84 441.27,-229.69 612.94,-27.83 4.9,5.78 11.03,9.37 18.38,10.77z"/>
  <path class="fil0" d="M1036.02 953.81l6.33 2.56c17.47,7.08 25.91,26.97 18.85,44.44l-83.77 207.35c-7.06,17.47 -26.95,25.91 -44.42,18.85l-6.33 -2.55c-17.46,-7.06 -25.9,-26.95 -18.85,-44.42l83.77 -207.37c7.07,-17.45 26.96,-25.89 44.43,-18.84z"/>
  <path class="fil0" d="M745.44 953.4l5.97 2.01c17.87,6.02 27.48,25.37 21.47,43.23l-83.57 248.29c-6,17.86 -25.35,27.47 -43.21,21.46l-5.98 -2.02c-17.85,-6 -27.45,-25.36 -21.44,-43.21l83.54 -248.31c6.03,-17.84 25.38,-27.45 43.24,-21.44z"/>
  <path class="fil0" d="M891.62 954.24l4.92 1.86c18.03,6.82 27.13,26.97 20.31,45l-124.15 328.55c-6.8,18.04 -26.95,27.13 -44.98,20.32l-4.93 -1.86c-18.01,-6.81 -27.11,-26.96 -20.29,-44.99l124.13 -328.56c6.83,-18.02 26.97,-27.12 45,-20.3z"/>
  <path class="fil1" d="M929.2 1005.75l-18.37 48.62c-0.84,2.23 -0.57,4.54 0.79,6.5 1.36,1.96 3.41,3.04 5.8,3.04l18.33 0c2.94,0 5.44,-1.69 6.54,-4.41l37.06 -91.74c8.59,-21.29 26.56,-29.79 44.94,-29.25 6.77,0.19 13.56,1.68 19.79,4.2 6.25,2.52 12.15,6.18 17.19,10.78 13.66,12.39 20.73,31.07 12.18,52.23l-19.59 48.5c-0.91,2.24 -0.66,4.58 0.69,6.58 1.35,2.01 3.43,3.11 5.84,3.11l30.61 0c1.45,0 2.69,-0.38 3.9,-1.18 6.27,-4.18 13.9,-6.43 22,-6.02 0.6,0.03 1.21,0.09 1.81,0.14 0.05,0.01 0.09,0.02 0.14,0.02 71.79,6.43 119.51,4.76 143.13,-5.04 89.25,-37.45 137.37,-98.88 144.37,-184.28 9.72,-119.44 -94.23,-219.45 -210.26,-220.24 -16.27,0 -32.02,3.42 -47.25,10.24 -9.97,4.55 -18.11,2.36 -24.41,-6.56 -14.7,-20.65 -31.24,-40.25 -49.61,-58.8 -173.51,-176.39 -460.15,-90.57 -515.81,145.38 -0.01,0.04 -0.02,0.08 -0.03,0.12 -1.57,7.27 -5.92,11.89 -13.01,13.82 -0.06,0.02 -0.12,0.03 -0.18,0.05 -7.99,2.4 -16.1,1.71 -24.28,-2.1 -0.03,-0.02 -0.06,-0.04 -0.09,-0.05 -8.55,-3.83 -17.47,-5.06 -26.73,-3.66 -97.48,14 -147,69.56 -148.58,166.69 -1.31,75.07 77.18,151.46 156.45,147 25.55,-1.4 51.98,-1.14 79.28,0.79 3.62,0.28 7.01,1.3 10.06,2.88 1.05,0.55 2.07,0.8 3.26,0.8l58.11 0c3.08,0 5.71,-1.88 6.69,-4.8l29.75 -88.45c7.31,-21.64 24.8,-31.24 43.18,-31.81 6.69,-0.2 13.51,0.84 19.88,2.99 6.4,2.14 12.51,5.45 17.73,9.69 14.19,11.52 22.18,29.63 14.89,51.3 -5.25,15.61 -10.82,33.26 -16.63,51.94 -0.69,2.21 -0.31,4.41 1.06,6.27 1.37,1.87 3.37,2.87 5.68,2.87l18.4 0c2.99,0 5.53,-1.76 6.59,-4.56l33.79 -89.44c8.22,-21.72 26.05,-30.83 44.42,-30.82 6.81,0.01 13.65,1.32 19.98,3.71 6.43,2.44 12.43,6 17.48,10.44 13.82,12.24 21.2,30.92 13.04,52.51z"/>
 </g>
</svg>
