<?xml version="1.0" encoding="UTF-8"?>
<!DOCTYPE svg PUBLIC "-//W3C//DTD SVG 1.1//EN" "http://www.w3.org/Graphics/SVG/1.1/DTD/svg11.dtd">
<!-- Creator: CorelDRAW -->
<svg xmlns="http://www.w3.org/2000/svg" xml:space="preserve" width="17.6388mm" height="17.6388mm" version="1.1" style="shape-rendering:geometricPrecision; text-rendering:geometricPrecision; image-rendering:optimizeQuality; fill-rule:evenodd; clip-rule:evenodd"
viewBox="0 0 1763.88 1763.88"
 xmlns:xlink="http://www.w3.org/1999/xlink"
 xmlns:xodm="http://www.corel.com/coreldraw/odm/2003">
 <defs>
  <style type="text/css">
   <![CDATA[
    .fil1 {fill:white;fill-rule:nonzero}
    .fil2 {fill:#516F86;fill-rule:nonzero}
    .fil0 {fill:#EAC268;fill-rule:nonzero}
   ]]>
  </style>
 </defs>
 <g id="Слой_x0020_1">
  <metadata id="CorelCorpID_0Corel-Layer"/>
  <path class="fil0" d="M1462.35 725.19c8.57,-1.4 12.51,2.18 11.81,10.76 -0.7,9.1 -4.64,17.24 -11.81,24.41 -44.63,44.8 -93.71,78.84 -147.26,102.11 -8.97,3.85 -19.62,1.13 -25.89,-6.7 -60.09,-77.96 -139.14,-114.66 -237.14,-110.11 -11.9,0.53 -22.22,-3.24 -30.97,-11.29l-93.19 -86.88c-6.83,-6.43 -11.33,-15.23 -12.57,-24.72 -18.22,-151.7 40.48,-265.61 176.11,-341.73 1.16,-0.66 2.46,-1 3.78,-1 4.2,0 7.61,3.41 7.61,7.61 0,0.78 -0.12,1.57 -0.36,2.31 -81.65,244.13 99.48,478.54 359.88,435.23z"/>
  <path class="fil1" d="M611.67 1120.81l2 0.67c18.71,6.22 28.84,26.44 22.62,45.14l-82.54 248.08c-6.21,18.72 -26.43,28.84 -45.14,22.62l-2 -0.67c-18.69,-6.21 -28.82,-26.43 -22.59,-45.13l82.51 -248.1c6.24,-18.7 26.46,-28.82 45.16,-22.6z"/>
  <path class="fil1" d="M755.25 1121.44l5.9 2.2c17.53,6.56 26.42,26.07 19.87,43.59l-123.57 330.45c-6.53,17.52 -26.04,26.41 -43.56,19.86l-5.91 -2.21c-17.5,-6.54 -26.39,-26.05 -19.85,-43.57l123.54 -330.46c6.57,-17.51 26.08,-26.4 43.59,-19.85z"/>
  <path class="fil1" d="M903.12 1122.23l2.43 0.99c18.4,7.51 27.22,28.5 19.72,46.89l-83.73 205.12c-7.49,18.4 -28.48,27.23 -46.87,19.72l-2.44 -1c-18.37,-7.49 -27.2,-28.48 -19.69,-46.87l83.69 -205.14c7.53,-18.38 28.52,-27.2 46.9,-19.7z"/>
  <path class="fil0" d="M839.44 590c-8.75,-136.68 43.13,-248.59 155.66,-335.74 69.56,-53.81 160.91,-72.19 247.54,-77.7 32.37,-1.92 36.31,7.79 11.81,29.14 -230.74,199.76 -12.08,550.46 250.42,427.09 33.43,-15.75 65.63,-34.39 96.6,-55.92 11.2,-7.7 15.23,-4.9 12.08,8.4 -38.59,157.77 -92.14,279.22 -253.58,338.02 -51.41,7.05 -40,-28.16 -50.34,-48.73 -19.61,-38.99 -43.95,-61.01 -100.3,-91.73 -66.33,-31.3 -141.51,-36.76 -183.57,-30.04 -6.56,-12.77 -15.21,-25.46 -25.4,-37.74l20.73 19.32 -79.38 -74c-38.34,-28.38 -66.39,-41.08 -102.89,-47.8 11.38,2.1 1.32,-11.02 0.62,-22.57zm106.94 -167.79c-2.59,4.99 -5.05,10.04 -7.36,15.17 2.31,-5.13 4.76,-10.18 7.36,-15.17zm-7.37 15.18c-13.84,30.81 -22.36,64.23 -25.52,100.28 3.17,-36.05 11.68,-69.47 25.52,-100.28z"/>
  <path class="fil1" d="M1337.63 948.01c26.27,172.05 -36.72,285.46 -188.97,340.24 -52.76,19.16 -113.14,13.65 -170.36,13.39 -22.4,0 -33.6,-11.12 -33.6,-33.34l0 -12.86c0,-0.41 0.01,-1.08 0.05,-1.74 0.82,-15.63 14.28,-27.64 30.05,-26.81 0.65,0.03 1.31,0.09 1.95,0.17 141.2,18.66 272.97,-30.42 292.4,-187.4 16.8,-134.66 -126.53,-251.21 -255.68,-211.57 -11.72,3.5 -21.17,0.35 -28.35,-9.45 -97.65,-134.23 -216.82,-179.38 -357.52,-135.45 -103.6,32.37 -171.94,107.18 -205.01,224.43 -2.63,9.28 -8.75,14.09 -18.38,14.44 -7.7,0.18 -15.22,-1.31 -22.57,-4.46 -9.63,-4.03 -19.6,-4.99 -29.93,-2.89 -167.74,35.96 -200.02,247.28 -31.76,307.39 38.59,13.65 86.1,4.72 127.84,7.61 10.67,0.7 17.06,6.3 19.16,16.8 2.8,14.7 1.4,28.61 -4.2,41.74 -2.98,7 -8.23,10.85 -15.75,11.55 -84.18,7.7 -149.63,-2.89 -196.35,-31.76 -205.28,-126.53 -123.11,-391.92 105,-429.98 6.3,-1.05 10.85,-4.46 13.65,-10.24 90.65,-187.95 242.02,-262.5 454.12,-223.65 70.48,12.97 166.89,79.6 202.34,148.62 81.14,-12.98 285.62,19.42 311.87,195.22z"/>
  <path class="fil2" d="M648.8 1170.75c-4.88,14.67 -11.6,36.67 -19.22,61.75l33.93 0 35.81 -95.8c7.97,-21.26 25.66,-30.22 43.91,-30.2 6.67,0.01 13.45,1.3 19.73,3.64 6.32,2.36 12.25,5.82 17.28,10.18 13.73,11.92 21.1,30.2 13.13,51.51l-22.69 60.67 34.35 0 38.95 -95.52c8.93,-21.74 27.03,-30.65 45.35,-30.34 6.87,0.11 13.7,1.56 19.95,4.1 6.32,2.63 12.21,6.38 17.15,11.06 13.32,12.58 19.94,31.55 11.09,53.27l-23.46 57.43 42.1 0c5.17,-3.84 11.68,-5.98 18.64,-5.61 0.65,0.03 1.31,0.09 1.95,0.17 141.2,18.66 272.97,-30.42 292.4,-187.4 16.8,-134.66 -126.53,-251.21 -255.68,-211.57 -11.72,3.5 -21.17,0.35 -28.35,-9.45 -97.65,-134.23 -216.82,-179.38 -357.52,-135.45 -103.6,32.37 -171.94,107.18 -205.01,224.43 -2.63,9.28 -8.75,14.09 -18.38,14.44 -7.7,0.18 -15.22,-1.31 -22.57,-4.46 -9.63,-4.03 -19.6,-4.99 -29.93,-2.89 -167.74,35.96 -200.02,247.28 -31.76,307.39 38.59,13.65 86.1,4.72 127.84,7.61 3.95,0.26 7.32,1.19 10.09,2.79l65.14 0 31 -93.21c7.38,-22.15 24.67,-32.22 42.79,-33.14 6.78,-0.34 13.61,0.63 19.96,2.73 6.43,2.19 12.51,5.51 17.68,9.82 13.91,11.58 21.69,29.94 14.35,52.05z"/>
 </g>
</svg>
