<?xml version="1.0" encoding="UTF-8"?>
<!DOCTYPE svg PUBLIC "-//W3C//DTD SVG 1.1//EN" "http://www.w3.org/Graphics/SVG/1.1/DTD/svg11.dtd">
<!-- Creator: CorelDRAW -->
<svg xmlns="http://www.w3.org/2000/svg" xml:space="preserve" width="17.6388mm" height="17.6388mm" version="1.1" style="shape-rendering:geometricPrecision; text-rendering:geometricPrecision; image-rendering:optimizeQuality; fill-rule:evenodd; clip-rule:evenodd"
viewBox="0 0 1763.88 1763.88"
 xmlns:xlink="http://www.w3.org/1999/xlink"
 xmlns:xodm="http://www.corel.com/coreldraw/odm/2003">
 <defs>
  <style type="text/css">
   <![CDATA[
    .fil0 {fill:#264B68;fill-rule:nonzero}
    .fil1 {fill:#EAC268;fill-rule:nonzero}
   ]]>
  </style>
 </defs>
 <g id="Слой_x0020_1">
  <metadata id="CorelCorpID_0Corel-Layer"/>
  <path class="fil0" d="M839.44 590c-8.75,-136.68 43.13,-248.59 155.66,-335.74 69.56,-53.81 160.91,-72.19 247.54,-77.7 32.37,-1.92 36.31,7.79 11.81,29.14 -230.74,199.76 -12.08,550.46 250.42,427.09 33.43,-15.75 65.63,-34.39 96.6,-55.92 11.2,-7.7 15.23,-4.9 12.08,8.4 -38.59,157.77 -100.54,280.62 -261.98,339.42 -9.39,3.46 -15.31,13.2 -13.94,23.32 26.27,172.05 -36.72,285.46 -188.97,340.24 -52.76,19.16 -113.14,13.65 -170.36,13.39 -22.4,0 -33.6,-11.12 -33.6,-33.34l0 -12.86c0,-0.41 0.01,-1.08 0.05,-1.74 0.82,-15.63 14.28,-27.64 30.05,-26.81 0.65,0.03 1.31,0.09 1.95,0.17 141.2,18.66 272.97,-30.42 292.4,-187.4 16.8,-134.66 -126.53,-251.21 -255.68,-211.57 -11.72,3.5 -21.17,0.35 -28.35,-9.45 -97.65,-134.23 -216.82,-179.38 -357.52,-135.45 -103.6,32.37 -171.94,107.18 -205.01,224.43 -2.63,9.28 -8.75,14.09 -18.38,14.44 -7.7,0.18 -15.22,-1.31 -22.57,-4.46 -9.63,-4.03 -19.6,-4.99 -29.93,-2.89 -167.74,35.96 -200.02,247.28 -31.76,307.39 38.59,13.65 86.1,4.72 127.84,7.61 10.67,0.7 17.06,6.3 19.16,16.8 2.8,14.7 1.4,28.61 -4.2,41.74 -2.98,7 -8.23,10.85 -15.75,11.55 -84.18,7.7 -149.63,-2.89 -196.35,-31.76 -205.28,-126.53 -123.11,-391.92 105,-429.98 6.3,-1.05 10.85,-4.46 13.65,-10.24 90.65,-187.95 242.02,-262.5 454.12,-223.65 11.38,2.1 16.72,-2.62 16.02,-14.17zm622.91 135.19c-260.4,43.31 -441.53,-191.1 -359.89,-435.23 0.25,-0.74 0.37,-1.53 0.37,-2.31 0,-4.2 -3.41,-7.61 -7.61,-7.61 -1.32,0 -2.62,0.34 -3.77,1 -135.63,76.12 -194.35,189.96 -176.15,341.51 1.27,9.71 5.77,18.51 12.76,25.1l93.03 86.72c8.75,8.05 19.07,11.82 30.97,11.29 98,-4.55 177.01,32.11 237.04,109.99 6.37,7.95 17.02,10.67 26.14,6.76 53.45,-23.23 102.48,-57.25 147.11,-102.05 7.17,-7.17 11.11,-15.31 11.81,-24.41 0.7,-8.58 -3.24,-12.16 -11.81,-10.76z"/>
  <path class="fil1" d="M1462.35 725.19c8.57,-1.4 12.51,2.18 11.81,10.76 -0.7,9.1 -4.64,17.24 -11.81,24.41 -44.63,44.8 -93.71,78.84 -147.26,102.11 -8.97,3.85 -19.62,1.13 -25.89,-6.7 -60.09,-77.96 -139.14,-114.66 -237.14,-110.11 -11.9,0.53 -22.22,-3.24 -30.97,-11.29l-93.19 -86.88c-6.83,-6.43 -11.33,-15.23 -12.57,-24.72 -18.22,-151.7 40.48,-265.61 176.11,-341.73 1.16,-0.66 2.46,-1 3.78,-1 4.2,0 7.61,3.41 7.61,7.61 0,0.78 -0.12,1.57 -0.36,2.31 -81.65,244.13 99.48,478.54 359.88,435.23z"/>
  <path class="fil0" d="M611.67 1120.81l2 0.67c18.71,6.22 28.84,26.44 22.62,45.14l-82.54 248.08c-6.21,18.72 -26.43,28.84 -45.14,22.62l-2 -0.67c-18.69,-6.21 -28.82,-26.43 -22.59,-45.13l82.51 -248.1c6.24,-18.7 26.46,-28.82 45.16,-22.6z"/>
  <path class="fil0" d="M755.25 1121.44l5.9 2.2c17.53,6.56 26.42,26.07 19.87,43.59l-123.57 330.45c-6.53,17.52 -26.04,26.41 -43.56,19.86l-5.91 -2.21c-17.5,-6.54 -26.39,-26.05 -19.85,-43.57l123.54 -330.46c6.57,-17.51 26.08,-26.4 43.59,-19.85z"/>
  <path class="fil0" d="M903.12 1122.23l2.43 0.99c18.4,7.51 27.22,28.5 19.72,46.89l-83.73 205.12c-7.49,18.4 -28.48,27.23 -46.87,19.72l-2.44 -1c-18.37,-7.49 -27.2,-28.48 -19.69,-46.87l83.69 -205.14c7.53,-18.38 28.52,-27.2 46.9,-19.7z"/>
 </g>
</svg>
