<?xml version="1.0" encoding="UTF-8"?>
<!DOCTYPE svg PUBLIC "-//W3C//DTD SVG 1.1//EN" "http://www.w3.org/Graphics/SVG/1.1/DTD/svg11.dtd">
<!-- Creator: CorelDRAW -->
<svg xmlns="http://www.w3.org/2000/svg" xml:space="preserve" width="17.6388mm" height="17.6388mm" version="1.1" style="shape-rendering:geometricPrecision; text-rendering:geometricPrecision; image-rendering:optimizeQuality; fill-rule:evenodd; clip-rule:evenodd"
viewBox="0 0 1763.88 1763.88"
 xmlns:xlink="http://www.w3.org/1999/xlink"
 xmlns:xodm="http://www.corel.com/coreldraw/odm/2003">
 <defs>
  <style type="text/css">
   <![CDATA[
    .fil1 {fill:white;fill-rule:nonzero}
    .fil2 {fill:#516F86;fill-rule:nonzero}
    .fil0 {fill:#EAC268;fill-rule:nonzero}
   ]]>
  </style>
 </defs>
 <g id="Слой_x0020_1">
  <metadata id="CorelCorpID_0Corel-Layer"/>
  <path class="fil0" d="M1093.69 439.12c-48.82,149.1 -14,271.95 104.48,368.55 71.75,58.62 154.7,79.71 248.85,63.26 25.55,-4.37 30.01,3.33 13.39,23.1 -37.28,44.45 -84.18,80.68 -140.7,108.68 -8.23,4.2 -15.49,2.88 -21.79,-3.94 -67.2,-73.33 -145.69,-106.05 -235.46,-98.18 -10.5,0.88 -19.17,-2.71 -25.99,-10.76 -32.73,-38.15 -69.91,-70.35 -111.56,-96.6 -8.11,-5.07 -14.08,-13.23 -16.48,-22.64 -34.97,-140.63 51.39,-277.92 173.19,-341.71 12.42,-6.47 16.45,-3.06 12.07,10.24z"/>
  <path class="fil0" d="M831.72 742.57c-16.28,-255.94 164.85,-411.08 408.71,-420.79 25.03,-0.87 28.26,7.09 9.71,23.89 -272.21,245.7 48.83,609.26 323.67,385.35 26.07,-21 35.08,-15.31 27.03,17.06 -37.01,149.63 -102.11,259.09 -253.57,321.83 -3.31,1.38 -5.47,4.63 -5.47,8.23 0,1.23 0.26,2.45 0.75,3.58 -81.61,-148.36 -155.69,-174.2 -300.16,-177.43 -6.11,-9.86 -13.13,-20.67 -21.56,-31.88l0.21 0.22 -0.24 -0.25 -0.01 -0.02c-28.79,-30.61 -60.75,-56.98 -95.88,-79.13 -3.12,-1.95 -5.92,-4.35 -8.32,-7.11 -26.93,-13.2 -59.14,-24.21 -98,-31.48 9.28,1.4 13.65,-2.62 13.13,-12.07zm153.04 -239.28c-2.91,3.17 -5.77,6.38 -8.56,9.64 2.79,-3.26 5.65,-6.48 8.56,-9.64zm-8.56 9.65c-2.79,3.26 -5.52,6.57 -8.18,9.93 2.66,-3.36 5.39,-6.66 8.18,-9.93zm-8.18 9.93c-4,5.04 -7.85,10.19 -11.54,15.43 3.69,-5.24 7.55,-10.39 11.54,-15.43zm-18.72 26.06c-41.82,64.49 -60.57,142.47 -40.93,221.46l0.15 0.55 -0.09 -0.35c-19.67,-79.1 -0.95,-157.15 40.87,-221.66z"/>
  <path class="fil1" d="M1042.39 904.29c144.47,3.23 218.55,29.07 300.16,177.43 67.52,122.74 -9.98,279.3 -132.31,343.35 -41.65,21.87 -93.27,32.37 -154.87,31.5 -223.48,-3.68 -444.5,-3.85 -663.08,-0.53 -299.51,4.47 -332.06,-416.58 -26.77,-460.16 7.87,-1.05 13.56,-5.16 17.06,-12.34 90.83,-183.22 236.16,-259.52 436.01,-228.9 138.88,25.96 193.01,99.96 223.8,149.65zm-603.9 161.42c-1.59,7.19 -7.98,12.32 -15.36,12.32 -1.92,0 -3.83,-0.35 -5.63,-1.04 -122.86,-48.03 -229.96,109.2 -175.36,218.67 26.25,52.5 79.28,85.83 138.34,85.57 233.8,0 464.45,0.18 691.95,0.53 173.25,0.26 282.45,-189 171.15,-328.92 -56.35,-70.7 -130.02,-93.88 -221.02,-69.56 -9.1,2.45 -16.19,-0.35 -21.27,-8.4 -147,-237.82 -504.26,-190.05 -562.8,90.83z"/>
  <path class="fil2" d="M438.49 1065.71c-1.59,7.19 -7.98,12.32 -15.36,12.32 -1.92,0 -3.83,-0.35 -5.63,-1.04 -122.86,-48.03 -229.96,109.2 -175.36,218.67 26.25,52.5 79.28,85.83 138.34,85.57 233.8,0 464.45,0.18 691.95,0.53 173.25,0.26 282.45,-189 171.15,-328.92 -56.35,-70.7 -130.02,-93.88 -221.02,-69.56 -9.1,2.45 -16.19,-0.35 -21.27,-8.4 -147,-237.82 -504.26,-190.05 -562.8,90.83z"/>
 </g>
</svg>
