<?xml version="1.0" encoding="UTF-8"?>
<!DOCTYPE svg PUBLIC "-//W3C//DTD SVG 1.1//EN" "http://www.w3.org/Graphics/SVG/1.1/DTD/svg11.dtd">
<!-- Creator: CorelDRAW -->
<svg xmlns="http://www.w3.org/2000/svg" xml:space="preserve" width="17.6388mm" height="17.6388mm" version="1.1" style="shape-rendering:geometricPrecision; text-rendering:geometricPrecision; image-rendering:optimizeQuality; fill-rule:evenodd; clip-rule:evenodd"
viewBox="0 0 1763.88 1763.88"
 xmlns:xlink="http://www.w3.org/1999/xlink"
 xmlns:xodm="http://www.corel.com/coreldraw/odm/2003">
 <defs>
  <style type="text/css">
   <![CDATA[
    .fil0 {fill:#264B68;fill-rule:nonzero}
    .fil1 {fill:#EAC268;fill-rule:nonzero}
   ]]>
  </style>
 </defs>
 <g id="Слой_x0020_1">
  <metadata id="CorelCorpID_0Corel-Layer"/>
  <path class="fil0" d="M831.72 742.57c-16.28,-255.94 164.85,-411.08 408.71,-420.79 25.03,-0.87 28.26,7.09 9.71,23.89 -272.21,245.7 48.83,609.26 323.67,385.35 26.07,-21 35.08,-15.31 27.03,17.06 -37.01,149.63 -102.11,259.09 -253.57,321.83 -3.31,1.38 -5.47,4.63 -5.47,8.23 0,1.23 0.26,2.45 0.75,3.58 56.69,128.1 -9.98,279.3 -132.31,343.35 -41.65,21.87 -93.27,32.37 -154.87,31.5 -223.48,-3.68 -444.5,-3.85 -663.08,-0.53 -299.51,4.47 -332.06,-416.58 -26.77,-460.16 7.87,-1.05 13.56,-5.16 17.06,-12.34 90.83,-183.22 236.16,-259.52 436.01,-228.9 9.28,1.4 13.65,-2.62 13.13,-12.07zm261.97 -303.45c4.38,-13.3 0.35,-16.71 -12.07,-10.24 -121.8,63.79 -208.16,201.08 -173.25,341.51 2.46,9.61 8.43,17.77 16.71,22.95 41.53,26.18 78.66,58.34 111.39,96.49 6.82,8.05 15.49,11.64 25.99,10.76 89.77,-7.87 168.26,24.85 235.46,98.18 6.3,6.82 13.56,8.14 21.79,3.94 56.52,-28 103.42,-64.23 140.7,-108.68 16.62,-19.77 12.16,-27.47 -13.39,-23.1 -94.15,16.45 -177.1,-4.64 -248.85,-63.26 -118.48,-96.6 -153.3,-219.45 -104.48,-368.55zm-655.2 626.59c-1.59,7.19 -7.98,12.32 -15.36,12.32 -1.92,0 -3.83,-0.35 -5.63,-1.04 -122.86,-48.03 -229.96,109.2 -175.36,218.67 26.25,52.5 79.28,85.83 138.34,85.57 233.8,0 464.45,0.18 691.95,0.53 173.25,0.26 282.45,-189 171.15,-328.92 -56.35,-70.7 -130.02,-93.88 -221.02,-69.56 -9.1,2.45 -16.19,-0.35 -21.27,-8.4 -147,-237.82 -504.26,-190.05 -562.8,90.83z"/>
  <path class="fil1" d="M1093.69 439.12c-48.82,149.1 -14,271.95 104.48,368.55 71.75,58.62 154.7,79.71 248.85,63.26 25.55,-4.37 30.01,3.33 13.39,23.1 -37.28,44.45 -84.18,80.68 -140.7,108.68 -8.23,4.2 -15.49,2.88 -21.79,-3.94 -67.2,-73.33 -145.69,-106.05 -235.46,-98.18 -10.5,0.88 -19.17,-2.71 -25.99,-10.76 -32.73,-38.15 -69.91,-70.35 -111.56,-96.6 -8.11,-5.07 -14.08,-13.23 -16.48,-22.64 -34.97,-140.63 51.39,-277.92 173.19,-341.71 12.42,-6.47 16.45,-3.06 12.07,10.24z"/>
 </g>
</svg>
