<?xml version="1.0" encoding="UTF-8"?>
<!DOCTYPE svg PUBLIC "-//W3C//DTD SVG 1.1//EN" "http://www.w3.org/Graphics/SVG/1.1/DTD/svg11.dtd">
<!-- Creator: CorelDRAW -->
<svg xmlns="http://www.w3.org/2000/svg" xml:space="preserve" width="17.6388mm" height="17.6388mm" version="1.1" style="shape-rendering:geometricPrecision; text-rendering:geometricPrecision; image-rendering:optimizeQuality; fill-rule:evenodd; clip-rule:evenodd"
viewBox="0 0 1763.88 1763.88"
 xmlns:xlink="http://www.w3.org/1999/xlink"
 xmlns:xodm="http://www.corel.com/coreldraw/odm/2003">
 <defs>
  <style type="text/css">
   <![CDATA[
    .fil0 {fill:#264B68;fill-rule:nonzero}
   ]]>
  </style>
 </defs>
 <g id="Слой_x0020_1">
  <metadata id="CorelCorpID_0Corel-Layer"/>
  <path class="fil0" d="M499.45 569.81c23.37,-33.6 39.38,-70.88 66.94,-102.38 158.55,-180.86 428.14,-180.07 585.38,7.09 6.47,7.7 14.78,11.38 24.93,11.03 375.64,-16.02 417.12,517.12 34.39,559.65 -20.3,2.27 -35.26,-5.6 -44.89,-23.63 -5.77,-11.37 -4.72,-24.06 3.15,-38.06 5.33,-9.81 15.6,-15.92 26.76,-15.92 1.06,0 2.12,0.06 3.17,0.16 26.25,2.46 51.19,-1.92 74.81,-13.11 248.59,-118.39 104.74,-457.81 -130.2,-386.67 -9.8,2.98 -17.67,0.35 -23.62,-7.87 -93.8,-133.35 -212.11,-178.77 -354.9,-136.24 -106.4,31.67 -175.97,107.36 -208.69,227.06 -0.04,0.14 -0.09,0.35 -0.15,0.54 -2.67,8.74 -12.03,13.62 -20.91,10.91 -0.13,-0.04 -0.28,-0.09 -0.41,-0.14 -24.36,-8.59 -48.18,-8.95 -71.46,-1.07 -181.38,61.69 -146.47,302.92 40.43,308.96 21.87,0.88 31.67,12.16 29.4,33.86l-1.31 14.71c-1.73,15.8 -15.46,27.35 -31.09,26.23 -295.73,-19.67 -312.27,-422.35 -25.88,-460.67 10.15,-1.23 18.2,-6.04 24.15,-14.44z"/>
  <path class="fil0" d="M797.39 988.23l4.73 41.22c1.35,12.63 -3.81,24.59 -13.56,32.1 -8.29,6.77 -16.81,9.72 -25.56,8.85 -22.4,-2.28 -33.68,-14.62 -33.86,-37.01 0,-14.35 2.19,-28.09 6.56,-41.22 0.3,-0.98 0.49,-2.02 0.54,-3.06 0.37,-6.95 -4.86,-12.88 -11.66,-13.23 -1.1,-0.06 -2.21,0.03 -3.29,0.28 -3.87,0.87 -7.81,1.66 -11.84,2.36 -3.5,0.7 -6.74,2.19 -9.71,4.46 -9.62,7.88 -20.12,14.62 -31.5,20.22 -11.55,5.77 -22.84,4.81 -33.86,-2.89 -13.13,-9.45 -18.9,-22.66 -17.33,-39.64 0.8,-8.02 5.64,-15.14 12.87,-18.9l40.42 -21.26c1.28,-0.66 2.61,-1.61 3.77,-2.73 6.47,-6.25 6.73,-16.47 0.59,-22.83 -1.15,-1.19 -2.48,-2.19 -3.95,-2.97l-37.16 -20.03c-17.67,-9.45 -22.84,-23.45 -15.49,-42 3.33,-9.1 8.75,-15.84 16.28,-20.22 16.1,-9.62 31.41,-8.48 45.94,3.42 11.2,9.1 23.18,16.01 35.96,20.73 13.12,4.9 18.2,0.53 15.22,-13.12 -3.85,-17.5 -4.81,-34.56 -2.88,-51.19 1.05,-8.57 5.07,-15.31 12.07,-20.21 13.3,-9.1 27.21,-10.94 41.74,-5.51 8.75,3.5 14.17,9.8 16.27,18.9 4.73,20.82 4.64,41.91 -0.26,63.26 -0.41,1.67 -0.44,3.43 -0.08,5.13 1.36,6.38 7.75,10.43 14.28,9.04 1.69,-0.36 3.29,-1.07 4.69,-2.09l37.81 -29.14c5.47,-4.13 12.15,-6.37 19,-6.37 6.55,0 12.94,2.05 18.28,5.85 21.87,15.74 26.77,33.42 14.7,53.02 -11.82,18.37 -36.75,19.68 -53.82,35.7 -8.4,7.87 -7.61,14.52 2.37,19.95l42.26 23.1c8.99,4.91 14.59,14.27 14.7,24.51 0,19.88 -10.42,33.94 -31.24,42.16 -10.5,4.2 -19.69,2.19 -27.56,-6.04 -11.55,-11.9 -24.85,-20.56 -39.9,-25.98 -12.78,-4.55 -18.29,-0.09 -16.54,13.38z"/>
  <path class="fil0" d="M1070.13 1284.33l0.26 53.82c0.18,14.5 -11.28,26.46 -25.68,26.77l-21.57 0.26c-23.45,0.53 -33.6,-10.85 -30.45,-34.12l5.51 -38.85c2.1,-15.4 -4.2,-20.56 -18.9,-15.49 -12.25,4.2 -23.97,10.94 -35.17,20.21 -0.17,0.14 -0.49,0.41 -0.82,0.66 -15.07,11.78 -36.93,9.01 -48.79,-6.18 -0.23,-0.29 -0.46,-0.6 -0.68,-0.89l-5.89 -8.29c-11.02,-15.4 -9.27,-29.22 5.25,-41.47 11.2,-9.63 23.19,-17.59 35.97,-23.89 30.62,-15.05 29.31,-26.69 -3.94,-34.91 -18.03,-4.38 -31.06,-14 -39.11,-28.88 -5.6,-10.5 -5.25,-20.82 1.05,-30.97 17.15,-26.95 38.93,-30.28 65.36,-9.97 39.9,30.8 53.72,21.96 41.47,-26.52 -2.97,-11.72 -0.7,-23.1 6.83,-34.12 5.6,-8.23 13.38,-13.13 23.36,-14.7 20.13,-2.98 34.3,3.93 42.53,20.73 11.54,23.1 -2.63,43.05 2.36,65.89 2.8,13.65 9.01,15.31 18.64,4.99 17.5,-18.55 33.25,-27.83 47.25,-27.83 28.52,0 44.18,11.47 46.98,34.39 1.23,9.98 -1.66,18.64 -8.66,25.99 -8.75,9.1 -19.25,15.66 -31.5,19.69 -34.82,11.37 -35.52,24.5 -2.1,39.37 8.93,4.03 20.39,11.9 34.39,23.63 0.39,0.33 0.53,0.46 0.67,0.58 10.88,9.79 11.68,26.65 1.78,37.64 -0.1,0.11 -0.21,0.23 -0.31,0.34l-11.85 12.89c-5.46,5.91 -13.15,9.27 -21.2,9.27 -4.99,0 -9.9,-1.3 -14.24,-3.76l-44.37 -24.94c-9.8,-5.42 -14.61,-2.54 -14.43,8.66z"/>
  <path class="fil0" d="M585.81 1207.42l-1.83 -46.99c-0.02,-0.44 -0.03,-0.9 -0.03,-1.35 0,-18.72 14.67,-34.17 33.37,-35.13 11.9,-0.7 22.66,2.1 32.28,8.4 8.12,5.43 12.37,14.72 11.26,24.2l-4.96 46.15c-1.57,13.65 3.77,17.32 16.02,11.02l50.4 -25.72c4.27,-2.24 9.04,-3.42 13.87,-3.42 8.27,0 16.17,3.42 21.83,9.45 13.82,14.88 16.88,30.63 9.18,47.25 -3.67,8.05 -9.62,13.74 -17.85,17.07 -14.52,5.6 -27.65,13.56 -39.37,23.88 -9.28,8.05 -8.14,14.01 3.41,17.85 16.8,5.6 32.03,13.92 45.68,24.94 8.4,6.65 12.33,15.4 11.81,26.25 -0.7,16.45 -8.05,28 -22.05,34.65 -9.1,4.55 -18.2,4.47 -27.3,-0.26l-48.56 -24.68c-1.65,-0.84 -3.48,-1.29 -5.33,-1.29 -6.38,0 -11.55,5.17 -11.55,11.55 0,0.43 0.03,0.87 0.07,1.3l4.47 44.09c0.1,0.97 0.15,1.96 0.15,2.93 0,12.71 -8.24,23.96 -20.36,27.79 -9.8,3.15 -19.6,3.85 -29.4,2.1 -15.23,-2.63 -23.98,-11.64 -26.25,-27.04 -2.28,-16.28 -1.93,-32.03 1.04,-47.25 3.33,-16.8 -2.44,-20.91 -17.32,-12.34l-41.48 23.63c-9.1,5.25 -18.46,5.6 -28.08,1.05 -20.3,-9.28 -28.79,-24.42 -25.46,-45.42 1.57,-10.15 6.91,-17.5 16.01,-22.05l42.52 -21.52c0.86,-0.43 1.75,-1.06 2.54,-1.79 4.56,-4.25 4.89,-11.32 0.74,-15.77 -0.77,-0.82 -1.67,-1.52 -2.65,-2.07l-48.4 -27.36c-19.95,-11.37 -22.58,-25.99 -7.88,-43.84l8.4 -9.71c13.65,-16.45 29.49,-18.99 47.52,-7.61l39.37 25.2c9.8,6.3 14.53,3.59 14.17,-8.14z"/>
 </g>
</svg>
