<?xml version="1.0" encoding="UTF-8"?>
<!DOCTYPE svg PUBLIC "-//W3C//DTD SVG 1.1//EN" "http://www.w3.org/Graphics/SVG/1.1/DTD/svg11.dtd">
<!-- Creator: CorelDRAW -->
<svg xmlns="http://www.w3.org/2000/svg" xml:space="preserve" width="17.6388mm" height="17.6388mm" version="1.1" style="shape-rendering:geometricPrecision; text-rendering:geometricPrecision; image-rendering:optimizeQuality; fill-rule:evenodd; clip-rule:evenodd"
viewBox="0 0 1763.88 1763.88"
 xmlns:xlink="http://www.w3.org/1999/xlink"
 xmlns:xodm="http://www.corel.com/coreldraw/odm/2003">
 <defs>
  <style type="text/css">
   <![CDATA[
    .fil0 {fill:white;fill-rule:nonzero}
    .fil1 {fill:#516F86;fill-rule:nonzero}
   ]]>
  </style>
 </defs>
 <g id="Слой_x0020_1">
  <metadata id="CorelCorpID_0Corel-Layer"/>
  <path class="fil0" d="M1372.03 1074.32c83.21,-45.42 134.4,-160.92 89.51,-253.05 -52.15,-106.58 -135.01,-146.13 -248.58,-118.65 -8.75,2.1 -15.58,-0.62 -20.48,-8.14 -160.65,-242.29 -478.27,-188.74 -564.9,85.31 -3.67,11.38 -11.37,15.93 -23.1,13.65 -72.1,-14 -131.51,15.23 -178.24,87.68 -5.28,8.06 -14.28,12.92 -23.92,12.92 -4.95,0 -9.83,-1.29 -14.14,-3.73l-7.35 -3.94c-21.52,-12.43 -25.81,-29.32 -12.86,-50.67 46.46,-76.38 101.32,-105 182.7,-120.48 12.42,-2.28 21.52,-9.02 27.3,-20.22 138.86,-266.96 443.89,-308.7 648.64,-86.88 5.43,5.91 12.95,9.3 20.83,9.45 137.31,1.57 229.06,53.55 275.27,155.92 44.8,99.75 38.14,192.76 -19.96,279.04 -65.62,97.91 -166.42,128.89 -284.28,126.26 -112.88,-2.8 -220.06,-3.15 -321.56,-1.05 -26.25,0.53 -39.38,-12.34 -39.38,-38.59l0 -8.92c-0.01,0 -0.01,-0.01 -0.01,-0.01 0,-15.06 11.99,-27.4 27.04,-27.82 111.66,-3.15 222.96,-2.8 333.91,1.05 63.17,2.1 114.36,-7.61 153.56,-29.13z"/>
  <path class="fil0" d="M367.97 958.82l470.4 0c20.15,0 36.49,16.34 36.49,36.49l-0.01 2.1c0.01,20.15 -16.33,36.49 -36.48,36.49l-470.4 -0.01c-20.15,0.01 -36.49,-16.33 -36.49,-36.48l0 -2.1c0,-20.15 16.34,-36.49 36.49,-36.49z"/>
  <path class="fil0" d="M231.99 1101.88l473.03 0c19.57,0 35.44,15.87 35.44,35.44l-0.01 2.1c0.01,19.57 -15.86,35.44 -35.43,35.44l-473.03 -0.01c-19.57,0.01 -35.44,-15.86 -35.44,-35.43l0 -2.1c0,-19.57 15.87,-35.44 35.44,-35.44z"/>
  <path class="fil0" d="M509.19 1244.42l473.03 0c19.86,0 35.96,16.1 35.96,35.96l0 2.1c0,19.86 -16.1,35.96 -35.96,35.96l-473.03 0c-19.86,0 -35.96,-16.1 -35.96,-35.96l0 -2.1c0,-19.86 16.1,-35.96 35.96,-35.96z"/>
  <path class="fil1" d="M1372.03 1074.32c83.21,-45.42 134.4,-160.92 89.51,-253.05 -52.15,-106.58 -135.01,-146.13 -248.58,-118.65 -8.75,2.1 -15.58,-0.62 -20.48,-8.14 -160.65,-242.29 -478.27,-188.74 -564.9,85.31 -3.67,11.38 -11.37,15.93 -23.1,13.65 -72.1,-14 -131.51,15.23 -178.24,87.68 -4.42,6.74 -11.43,11.24 -19.25,12.54l111.37 51.93 320.01 0c13.71,0 26.16,5.58 35.15,14.57 8.99,8.99 14.57,21.44 14.57,35.15l-0.06 2.1c0.05,13.73 -5.52,26.16 -14.51,35.15 -9.04,8.99 -21.47,14.57 -35.13,14.57l-102.31 -0.01 131.79 61.45c4.58,-3.7 10.37,-5.99 16.69,-6.17 111.66,-3.15 222.96,-2.8 333.91,1.05 63.17,2.1 114.36,-7.61 153.56,-29.13z"/>
 </g>
</svg>
