<?xml version="1.0" encoding="UTF-8"?>
<!DOCTYPE svg PUBLIC "-//W3C//DTD SVG 1.1//EN" "http://www.w3.org/Graphics/SVG/1.1/DTD/svg11.dtd">
<!-- Creator: CorelDRAW -->
<svg xmlns="http://www.w3.org/2000/svg" xml:space="preserve" width="17.6388mm" height="17.6388mm" version="1.1" style="shape-rendering:geometricPrecision; text-rendering:geometricPrecision; image-rendering:optimizeQuality; fill-rule:evenodd; clip-rule:evenodd"
viewBox="0 0 1763.88 1763.88"
 xmlns:xlink="http://www.w3.org/1999/xlink"
 xmlns:xodm="http://www.corel.com/coreldraw/odm/2003">
 <defs>
  <style type="text/css">
   <![CDATA[
    .fil0 {fill:#264B68;fill-rule:nonzero}
    .fil1 {fill:#EAC268;fill-rule:nonzero}
   ]]>
  </style>
 </defs>
 <g id="Слой_x0020_1">
  <metadata id="CorelCorpID_0Corel-Layer"/>
  <path class="fil0" d="M1385.54 900.26c30.97,-55.91 28.87,-135.45 -3.68,-188.74 -55.47,-91.17 -134.75,-124.33 -237.82,-99.48 -9.28,2.27 -16.54,-0.62 -21.79,-8.67 -153.3,-239.13 -494.55,-181.91 -561.75,91.62 -2.28,9.45 -8.31,13.56 -18.11,12.33 -239.93,-33.07 -265.92,291.38 -37.8,307.92 20.82,1.4 32.81,12.33 35.96,32.81 1.92,12.6 -4.55,24.41 -19.43,35.44 -7.44,5.27 -15.99,7.47 -24.43,6.5 -254.87,-25.93 -316.82,-355.1 -70.33,-450.39 16.28,-6.56 46.99,-6.3 66.68,-16.8 7.87,-4.2 13.73,-10.33 17.58,-18.37 131.52,-266.97 448.62,-302.14 645.23,-86.11 6.65,7.53 15.05,11.2 25.2,11.03 386.66,-4.73 405.3,533.92 24.41,560.17 -21.7,1.58 -34.04,-8.4 -37.01,-29.92l-1.58 -11.81c-0.17,-1.24 -0.26,-2.49 -0.26,-3.74 0,-13.93 10.78,-25.48 24.68,-26.45 89.77,-6.83 154.52,-45.94 194.25,-117.34z"/>
  <path class="fil1" d="M763.67 1167.75l-174.3 2.62c-12.42,0.18 -14.7,-4.46 -6.82,-13.91l279.82 -333.64c16.1,-19.42 20.57,-17.06 13.39,7.09l-58.8 198.45c-0.25,0.87 -0.42,1.69 -0.52,2.51 -1.06,8.63 5.2,16.51 13.97,17.58 0.79,0.1 1.59,0.14 2.38,0.12l176.32 -4.2c12.78,-0.35 15.05,4.38 6.83,14.18l-267.49 318.15c-34.13,40.42 -41.92,35.87 -23.36,-13.65 20.47,-54.43 38.76,-112.61 54.86,-174.56 3.5,-14 -1.93,-20.92 -16.28,-20.74z"/>
 </g>
</svg>
