<?xml version="1.0" encoding="UTF-8"?>
<!DOCTYPE svg PUBLIC "-//W3C//DTD SVG 1.1//EN" "http://www.w3.org/Graphics/SVG/1.1/DTD/svg11.dtd">
<!-- Creator: CorelDRAW -->
<svg xmlns="http://www.w3.org/2000/svg" xml:space="preserve" width="17.6388mm" height="17.6388mm" version="1.1" style="shape-rendering:geometricPrecision; text-rendering:geometricPrecision; image-rendering:optimizeQuality; fill-rule:evenodd; clip-rule:evenodd"
viewBox="0 0 1763.88 1763.88"
 xmlns:xlink="http://www.w3.org/1999/xlink"
 xmlns:xodm="http://www.corel.com/coreldraw/odm/2003">
 <defs>
  <style type="text/css">
   <![CDATA[
    .str0 {stroke:#264B68;stroke-width:7.62;stroke-miterlimit:22.9256}
    .fil0 {fill:#264B68;fill-rule:nonzero}
    .fil1 {fill:#EAC268;fill-rule:nonzero}
   ]]>
  </style>
 </defs>
 <g id="Слой_x0020_1">
  <metadata id="CorelCorpID_0Corel-Layer"/>
  <path class="fil0" d="M1123.93 226.13l3.67 -0.01c20.16,-0.07 36.56,16.21 36.63,36.36l0.54 159.6c0.08,20.15 -16.2,36.55 -36.35,36.62l-3.68 0.01c-20.15,0.07 -36.55,-16.21 -36.62,-36.36l-0.55 -159.6c-0.07,-20.15 16.21,-36.55 36.36,-36.62z"/>
  <path class="fil0" d="M814.64 405.84l92.71 91.42c13.21,13.04 13.36,34.32 0.33,47.53l-6.27 6.34c-13.02,13.22 -34.3,13.37 -47.51,0.34l-92.71 -91.43c-13.2,-13.01 -13.35,-34.3 -0.33,-47.5l6.27 -6.37c13.02,-13.19 34.31,-13.34 47.51,-0.32z"/>
  <path class="fil0 str0" d="M1482.71 405.56l7.44 7.41c12.63,12.6 12.66,33.04 0.08,45.67l-93.76 94.07c-12.58,12.65 -33.03,12.68 -45.66,0.1l-7.44 -7.43c-12.63,-12.57 -12.66,-33.02 -0.08,-45.65l93.76 -94.09c12.58,-12.62 33.03,-12.66 45.66,-0.07z"/>
  <path class="fil0" d="M911.71 680.25c68.25,-155.4 259.61,-210 389.29,-89.78 113.13,104.74 105.52,267.75 -10.24,367.77 -6.65,5.77 -9.19,13.03 -7.61,21.78 26.95,148.23 -26.08,254.54 -159.08,318.94 -50.75,24.68 -121.01,31.41 -210.79,20.21 -14.69,-2.02 -25.15,-14.54 -24.67,-29.05l0.26 -6.65c0.5,-20.21 17.04,-36.34 37.26,-36.34 1.76,0 3.52,0.13 5.26,0.37 40.25,5.61 78.23,4.91 113.93,-2.09 143.33,-28.61 228.64,-188.47 133.09,-315.52 -58.8,-78.23 -132.04,-105.44 -219.71,-81.64 -12.6,3.5 -22.58,-0.26 -29.93,-11.29 -158.55,-238.61 -489.3,-179.29 -558.6,90.56 -3.15,12.43 -10.85,17.24 -23.1,14.44 -200.55,-45.15 -270.64,253.84 -69.56,305.03 14.35,3.67 48.12,4.64 101.32,2.88 22.4,-0.7 35.7,9.98 39.9,32.03 0.53,3.15 0.7,6.3 0.53,9.45 -0.73,13.51 -10.6,24.78 -23.89,27.3 -319.46,61.69 -443.62,-339.68 -140.96,-449.66 1.4,-0.53 12.51,-1.67 33.34,-3.42 13.12,-1.22 22.57,-7.87 28.35,-19.94 106.57,-219.46 372.75,-311.33 573.03,-159.61 2.59,2.03 5.78,3.13 9.07,3.13 5.88,0 11.19,-3.5 13.51,-8.9zm54.6 72.97c-0.1,0.54 -0.15,1.07 -0.15,1.61 0,4.93 4,8.93 8.93,8.93 0.22,0 0.45,-0.01 0.67,-0.03 112.7,-8.23 202.04,32.63 268.01,122.58 7,9.45 13.91,9.36 20.74,-0.26 74.81,-103.95 43.57,-232.05 -75.08,-275.89 -104.47,-38.59 -203.43,40.16 -223.12,143.06z"/>
  <path class="fil1" d="M966.31 753.22c19.69,-102.9 118.65,-181.65 223.12,-143.06 118.65,43.84 149.89,171.94 75.08,275.89 -6.83,9.62 -13.74,9.71 -20.74,0.26 -65.97,-89.95 -155.31,-130.81 -268.01,-122.59 -0.22,0.03 -0.45,0.04 -0.67,0.04 -4.93,0 -8.93,-4 -8.93,-8.93 0,-0.54 0.05,-1.07 0.15,-1.6l0 -0.01z"/>
  <path class="fil0" d="M1474.24 731.7l159.6 0c20.44,0 37.01,16.57 37.01,37.01l0.01 3.15c-0.01,20.44 -16.58,37.01 -37.02,37.01l-159.6 0.01c-20.44,-0.01 -37.01,-16.58 -37.01,-37.02l0 -3.15c0,-20.44 16.57,-37.01 37.01,-37.01z"/>
  <path class="fil0" d="M1399.51 990.89l88.66 88.05c14.09,14 14.17,36.77 0.17,50.86l-2.95 2.98c-14,14.1 -36.77,14.18 -50.86,0.18l-88.66 -88.05c-14.09,-13.98 -14.16,-36.75 -0.17,-50.84l2.95 -3c14,-14.07 36.77,-14.15 50.86,-0.16z"/>
  <path class="fil0" d="M700.44 1143.43l8.35 3.16c17.22,6.51 25.91,25.75 19.41,42.97l-124.53 329.53c-6.5,17.23 -25.75,25.92 -42.97,19.41l-8.35 -3.16c-17.22,-6.5 -25.9,-25.74 -19.4,-42.96l124.52 -329.55c6.51,-17.21 25.76,-25.9 42.98,-19.39z"/>
  <path class="fil0" d="M844.36 1142.93l9.75 3.92c16.41,6.6 24.37,25.25 17.77,41.67l-84.79 210.91c-6.59,16.42 -25.25,24.37 -41.66,17.78l-9.75 -3.93c-16.41,-6.59 -24.36,-25.24 -17.76,-41.66l84.78 -210.92c6.6,-16.41 25.26,-24.36 41.67,-17.76z"/>
  <path class="fil0" d="M554.7 1142.96l9.46 3.18c16.77,5.65 25.79,23.81 20.14,40.58l-84.57 251.26c-5.63,16.78 -23.8,25.79 -40.56,20.15l-9.46 -3.19c-16.77,-5.64 -25.78,-23.8 -20.14,-40.57l84.57 -251.28c5.63,-16.75 23.8,-25.77 40.57,-20.13z"/>
 </g>
</svg>
