<?xml version="1.0" encoding="UTF-8"?>
<!DOCTYPE svg PUBLIC "-//W3C//DTD SVG 1.1//EN" "http://www.w3.org/Graphics/SVG/1.1/DTD/svg11.dtd">
<!-- Creator: CorelDRAW -->
<svg xmlns="http://www.w3.org/2000/svg" xml:space="preserve" width="17.6388mm" height="17.6388mm" version="1.1" style="shape-rendering:geometricPrecision; text-rendering:geometricPrecision; image-rendering:optimizeQuality; fill-rule:evenodd; clip-rule:evenodd"
viewBox="0 0 1763.88 1763.88"
 xmlns:xlink="http://www.w3.org/1999/xlink"
 xmlns:xodm="http://www.corel.com/coreldraw/odm/2003">
 <defs>
  <style type="text/css">
   <![CDATA[
    .fil0 {fill:white;fill-rule:nonzero}
    .fil1 {fill:#BC3C3B;fill-rule:nonzero}
   ]]>
  </style>
 </defs>
 <g id="Слой_x0020_1">
  <metadata id="CorelCorpID_0Corel-Layer"/>
  <path class="fil0" d="M437.52 784.19l0.52 549.41c0,18.55 -9.19,28.97 -27.56,31.24l-8.93 1.05c-26.07,3.15 -39.11,-8.4 -39.11,-34.65l0.26 -886.99c0,-25.37 12.69,-37.1 38.07,-35.17l9.71 0.79c15.94,1.09 28.68,14.56 28.62,30.75l-2.63 184.76c-0.35,13.3 4.2,15.22 13.65,5.77l162.22 -164.58c9.65,-10.09 24.14,-15.33 38.72,-13.73l709.93 93.53c18.92,2.5 33.07,18.64 33.07,37.73 0,0.02 0,0.05 0,0.06l-0.52 238.88c0.04,22.68 -16.72,42.04 -39.21,45.14l-694.74 91.1c-15.52,2.26 -31.9,-3.07 -43.64,-14.51l-164.78 -166.35c-9.28,-9.28 -13.83,-7.35 -13.65,5.77z"/>
  <path class="fil1" d="M941.52 571.83l2.36 270.64c-37.45,13.3 -81.9,19.33 -133.35,18.11l-0.53 -306.08 131.52 17.33z"/>
  <polygon class="fil1" points="1065.68,585.48 1198.5,604.64 1200.87,809.13 1066.73,829.08 "/>
 </g>
</svg>
