<?xml version="1.0" encoding="UTF-8"?>
<!DOCTYPE svg PUBLIC "-//W3C//DTD SVG 1.1//EN" "http://www.w3.org/Graphics/SVG/1.1/DTD/svg11.dtd">
<!-- Creator: CorelDRAW -->
<svg xmlns="http://www.w3.org/2000/svg" xml:space="preserve" width="17.6388mm" height="17.6388mm" version="1.1" style="shape-rendering:geometricPrecision; text-rendering:geometricPrecision; image-rendering:optimizeQuality; fill-rule:evenodd; clip-rule:evenodd"
viewBox="0 0 1763.88 1763.88"
 xmlns:xlink="http://www.w3.org/1999/xlink"
 xmlns:xodm="http://www.corel.com/coreldraw/odm/2003">
 <defs>
  <style type="text/css">
   <![CDATA[
    .fil0 {fill:#264B68;fill-rule:nonzero}
    .fil1 {fill:#BC3C3B;fill-rule:nonzero}
   ]]>
  </style>
 </defs>
 <g id="Слой_x0020_1">
  <metadata id="CorelCorpID_0Corel-Layer"/>
  <path class="fil0" d="M437.52 784.19l0.52 549.41c0,18.55 -9.19,28.97 -27.56,31.24l-8.93 1.05c-26.07,3.15 -39.11,-8.4 -39.11,-34.65l0.26 -886.99c0,-25.37 12.69,-37.1 38.07,-35.17l9.71 0.79c15.94,1.09 28.68,14.56 28.62,30.75l-2.63 184.76c-0.35,13.3 4.2,15.22 13.65,5.77l162.22 -164.58c9.65,-10.09 24.14,-15.33 38.72,-13.73l709.93 93.53c18.92,2.5 33.07,18.64 33.07,37.73 0,0.02 0,0.05 0,0.06l-0.52 238.88c0.04,22.68 -16.72,42.04 -39.21,45.14l-694.74 91.1c-15.52,2.26 -31.9,-3.07 -43.64,-14.51l-164.78 -166.35c-9.28,-9.28 -13.83,-7.35 -13.65,5.77zm373.01 76.39c51.45,1.22 95.9,-4.81 133.35,-18.11l122.85 -13.39 134.14 -19.95 100.8 -8.4c11.2,-0.88 16.8,-6.91 16.8,-18.11l0.78 -146.22c0.18,-12.07 -5.68,-18.72 -17.58,-19.95l-103.17 -11.81 -132.82 -19.16 -124.16 -13.65 -131.52 -17.33 -106.05 -15.48c-10.5,-1.58 -15.75,2.97 -15.75,13.65l0 315c0,0.32 0.02,0.66 0.05,1.01 0.59,6.79 6.69,11.8 13.63,11.19 0.33,-0.03 0.67,-0.07 1,-0.13l107.65 -19.16zm-212.36 -41.74c1.72,1.76 4.09,2.76 6.56,2.76 5.07,0 9.19,-4.12 9.19,-9.19 0,-0.04 0,-0.09 0,-0.13l-0.27 -216.56c0.01,-0.05 0.01,-0.1 0.01,-0.15 0,-5.07 -4.12,-9.19 -9.19,-9.19 -2.6,0 -5.09,1.11 -6.83,3.04l-104.74 108.41c-1.69,1.71 -2.63,4.02 -2.63,6.43 0,2.41 0.94,4.72 2.63,6.43l105.27 108.15z"/>
  <path class="fil1" d="M941.52 571.83l2.36 270.64c-37.45,13.3 -81.9,19.33 -133.35,18.11l-0.53 -306.08 131.52 17.33z"/>
  <polygon class="fil1" points="1065.68,585.48 1198.5,604.64 1200.87,809.13 1066.73,829.08 "/>
 </g>
</svg>
