<?xml version="1.0" encoding="UTF-8"?>
<!DOCTYPE svg PUBLIC "-//W3C//DTD SVG 1.1//EN" "http://www.w3.org/Graphics/SVG/1.1/DTD/svg11.dtd">
<!-- Creator: CorelDRAW -->
<svg xmlns="http://www.w3.org/2000/svg" xml:space="preserve" width="17.6388mm" height="17.6388mm" version="1.1" style="shape-rendering:geometricPrecision; text-rendering:geometricPrecision; image-rendering:optimizeQuality; fill-rule:evenodd; clip-rule:evenodd"
viewBox="0 0 1763.88 1763.88"
 xmlns:xlink="http://www.w3.org/1999/xlink"
 xmlns:xodm="http://www.corel.com/coreldraw/odm/2003">
 <defs>
  <style type="text/css">
   <![CDATA[
    .str0 {stroke:#EAC268;stroke-width:7.62;stroke-miterlimit:22.9256}
    .fil0 {fill:#EAC268;fill-rule:nonzero}
   ]]>
  </style>
 </defs>
 <g id="Слой_x0020_1">
  <metadata id="CorelCorpID_0Corel-Layer"/>
  <path class="fil0" d="M872.38 346.5l3.68 -0.01c20.16,-0.02 36.53,16.29 36.57,36.44l0.25 158.54c0.06,20.15 -16.25,36.52 -36.4,36.55l-3.7 0.01c-20.13,0.03 -36.5,-16.28 -36.54,-36.43l-0.28 -158.55c-0.03,-20.14 16.28,-36.51 36.43,-36.54z"/>
  <path class="fil0" d="M1231.8 525.29l6.68 6.68c13.44,13.44 13.44,35.22 0.02,48.65l-90.6 90.56c-13.41,13.45 -35.19,13.45 -48.62,0.02l-6.69 -6.7c-13.43,-13.42 -13.43,-35.2 0,-48.62l90.58 -90.59c13.43,-13.42 35.21,-13.42 48.64,0z"/>
  <path class="fil0" d="M566.54 526.85l89.47 89.47c14.46,14.46 14.46,37.9 0,52.35l-1.49 1.48c-14.44,14.46 -37.88,14.46 -52.33,0l-89.48 -89.47c-14.44,-14.44 -14.44,-37.88 0.02,-52.33l1.46 -1.5c14.47,-14.44 37.91,-14.44 52.36,0.02z"/>
  <path class="fil0 str0" d="M1129.04 889.87c0.01,134.51 -109.08,243.6 -243.59,243.6 -134.51,0 -243.6,-109.09 -243.6,-243.6 0,-134.51 109.09,-243.6 243.6,-243.6 134.51,0 243.6,109.09 243.6,243.6l-0.01 0z"/>
  <path class="fil0" d="M366.88 850.22l158.55 0.55c20.16,0.08 36.44,16.47 36.37,36.62l-0.03 4.2c-0.05,20.15 -16.45,36.44 -36.6,36.37l-158.56 -0.56c-20.13,-0.07 -36.41,-16.46 -36.34,-36.61l0 -4.21c0.08,-20.14 16.48,-36.43 36.63,-36.36z"/>
  <path class="fil0" d="M1222.04 850.32l161.17 1.41c20.02,0.18 36.1,16.54 35.92,36.54l-0.04 3.67c-0.17,20.01 -16.53,36.09 -36.53,35.91l-161.18 -1.41c-19.99,-0.17 -36.07,-16.53 -35.89,-36.53l0.01 -3.68c0.2,-20 16.56,-36.08 36.56,-35.9z"/>
  <path class="fil0 str0" d="M511.85 1195.89l87.1 -85.89c14.98,-14.75 39.08,-14.58 53.83,0.38l1.84 1.87c14.76,14.96 14.6,39.06 -0.37,53.82l-87.11 85.9c-14.95,14.75 -39.05,14.58 -53.81,-0.39l-1.86 -1.86c-14.74,-14.97 -14.57,-39.07 0.4,-53.83z"/>
  <path class="fil0" d="M1144.9 1106.72l94.53 92.57c12.75,12.48 12.97,32.93 0.49,45.66l-8.1 8.25c-12.46,12.75 -32.91,12.97 -45.65,0.49l-94.53 -92.58c-12.73,-12.46 -12.95,-32.91 -0.47,-45.65l8.07 -8.26c12.49,-12.73 32.94,-12.95 45.68,-0.47z"/>
  <path class="fil0" d="M871.87 1203.28l6.83 0.04c19.58,0.11 35.36,16.06 35.26,35.63l-0.84 158.54c-0.09,19.57 -16.04,35.35 -35.61,35.25l-6.84 -0.04c-19.55,-0.1 -35.34,-16.05 -35.24,-35.62l0.82 -158.55c0.12,-19.56 16.07,-35.34 35.64,-35.24z"/>
 </g>
</svg>
