<?xml version="1.0" encoding="UTF-8"?>
<!DOCTYPE svg PUBLIC "-//W3C//DTD SVG 1.1//EN" "http://www.w3.org/Graphics/SVG/1.1/DTD/svg11.dtd">
<!-- Creator: CorelDRAW -->
<svg xmlns="http://www.w3.org/2000/svg" xml:space="preserve" width="17.6107mm" height="17.6107mm" version="1.1" style="shape-rendering:geometricPrecision; text-rendering:geometricPrecision; image-rendering:optimizeQuality; fill-rule:evenodd; clip-rule:evenodd"
viewBox="0 0 1761.07 1761.07"
 xmlns:xlink="http://www.w3.org/1999/xlink"
 xmlns:xodm="http://www.corel.com/coreldraw/odm/2003">
 <defs>
  <style type="text/css">
   <![CDATA[
    .str0 {stroke:#264B68;stroke-width:7.61;stroke-miterlimit:22.9256}
    .fil0 {fill:#264B68;fill-rule:nonzero}
    .fil1 {fill:#EAC268;fill-rule:nonzero}
   ]]>
  </style>
 </defs>
 <g id="Слой_x0020_1">
  <metadata id="CorelCorpID_0Corel-Layer"/>
  <path class="fil0" d="M870.99 345.95l3.67 -0.01c20.13,-0.02 36.47,16.26 36.51,36.38l0.25 158.29c0.06,20.12 -16.22,36.46 -36.34,36.49l-3.69 0.01c-20.1,0.03 -36.44,-16.25 -36.48,-36.37l-0.28 -158.3c-0.03,-20.11 16.25,-36.45 36.37,-36.48z"/>
  <path class="fil0" d="M1229.84 524.45l6.67 6.67c13.42,13.42 13.42,35.16 0.02,48.57l-90.46 90.42c-13.39,13.43 -35.13,13.43 -48.54,0.02l-6.68 -6.69c-13.41,-13.4 -13.41,-35.14 0,-48.54l90.44 -90.45c13.41,-13.4 35.15,-13.4 48.56,0z"/>
  <path class="fil0" d="M565.64 526.01l89.33 89.33c14.44,14.44 14.44,37.84 0,52.27l-1.49 1.48c-14.42,14.44 -37.82,14.44 -52.25,0l-89.34 -89.33c-14.42,-14.42 -14.42,-37.82 0.02,-52.25l1.46 -1.5c14.45,-14.42 37.85,-14.42 52.28,0.02z"/>
  <path class="fil0 str0" d="M1127.24 888.45c0.01,134.3 -108.91,243.21 -243.2,243.21 -134.3,0 -243.21,-108.92 -243.21,-243.21 0,-134.3 108.92,-243.21 243.21,-243.21 134.3,0 243.21,108.92 243.21,243.21l-0.01 0zm-74.95 -0.26c0.01,-92.47 -74.99,-167.47 -167.46,-167.47 -92.47,0 -167.47,75 -167.47,167.47 0,92.47 75,167.47 167.47,167.47 92.47,0 167.47,-75 167.47,-167.47l-0.01 0z"/>
  <circle class="fil1" cx="884.82" cy="888.19" r="167.46"/>
  <path class="fil0" d="M366.29 848.86l158.3 0.55c20.13,0.08 36.38,16.44 36.31,36.56l-0.03 4.19c-0.05,20.12 -16.42,36.38 -36.54,36.31l-158.31 -0.56c-20.1,-0.07 -36.35,-16.43 -36.28,-36.55l0 -4.2c0.08,-20.11 16.45,-36.37 36.57,-36.3z"/>
  <path class="fil0" d="M1220.09 848.96l160.91 1.41c19.99,0.18 36.04,16.51 35.86,36.48l-0.04 3.66c-0.17,19.98 -16.5,36.03 -36.47,35.85l-160.92 -1.41c-19.96,-0.17 -36.01,-16.5 -35.83,-36.47l0.01 -3.67c0.2,-19.97 16.53,-36.02 36.5,-35.84z"/>
  <path class="fil0" d="M511.03 1193.98l86.96 -85.75c14.96,-14.73 39.02,-14.56 53.74,0.38l1.84 1.87c14.74,14.94 14.58,39 -0.37,53.73l-86.97 85.76c-14.93,14.73 -38.99,14.56 -53.72,-0.39l-1.86 -1.86c-14.72,-14.95 -14.55,-39.01 0.4,-53.74z"/>
  <path class="fil0" d="M1143.07 1104.95l94.38 92.42c12.73,12.46 12.95,32.88 0.49,45.59l-8.09 8.24c-12.44,12.73 -32.86,12.95 -45.58,0.49l-94.38 -92.43c-12.71,-12.44 -12.93,-32.86 -0.47,-45.58l8.06 -8.25c12.47,-12.71 32.89,-12.93 45.61,-0.47z"/>
  <path class="fil0" d="M870.48 1201.36l6.82 0.04c19.55,0.11 35.3,16.03 35.2,35.57l-0.84 158.29c-0.09,19.54 -16.01,35.29 -35.55,35.19l-6.83 -0.04c-19.52,-0.1 -35.28,-16.02 -35.18,-35.56l0.82 -158.3c0.12,-19.53 16.04,-35.28 35.58,-35.18z"/>
 </g>
</svg>
