<?xml version="1.0" encoding="UTF-8"?>
<!DOCTYPE svg PUBLIC "-//W3C//DTD SVG 1.1//EN" "http://www.w3.org/Graphics/SVG/1.1/DTD/svg11.dtd">
<!-- Creator: CorelDRAW -->
<svg xmlns="http://www.w3.org/2000/svg" xml:space="preserve" width="172.861mm" height="17.6388mm" version="1.1" style="shape-rendering:geometricPrecision; text-rendering:geometricPrecision; image-rendering:optimizeQuality; fill-rule:evenodd; clip-rule:evenodd"
viewBox="0 0 17286.1 1763.88"
 xmlns:xlink="http://www.w3.org/1999/xlink"
 xmlns:xodm="http://www.corel.com/coreldraw/odm/2003">
 <defs>
  <style type="text/css">
   <![CDATA[
    .str0 {stroke:#2B2B2A;stroke-width:7.62;stroke-miterlimit:22.9256}
    .fil0 {fill:#2B2B2A}
    .fil1 {fill:#2B2B2A;fill-rule:nonzero}
   ]]>
  </style>
 </defs>
 <g id="Слой_x0020_1">
  <metadata id="CorelCorpID_0Corel-Layer"/>
  <path class="fil0 str0" d="M51.47 7.05l1658.1 0c29.1,0 52.89,23.78 52.89,52.88l0 1658.12c0,29.1 -23.79,52.9 -52.89,52.9l-1658.1 0c-29.1,0 -52.9,-23.8 -52.9,-52.9l0 -1658.12c0,-29.1 23.8,-52.88 52.9,-52.88zm366.08 383.13l188.7 64.42c8.87,3 15.07,9.9 17.22,19.03 2.13,9.15 -0.42,18.02 -7.07,24.67l-126.55 126.55c-6.7,6.7 -15.68,9.25 -24.88,7.03 -9.2,-2.2 -16.05,-8.53 -18.97,-17.53l-62.18 -190.95c-3.17,-9.77 -0.72,-19.82 6.6,-27.05 7.33,-7.2 17.4,-9.5 27.13,-6.17zm488.32 -181.28l87.87 178.98c4.15,8.42 3.68,17.67 -1.27,25.65 -4.98,7.97 -13.05,12.45 -22.45,12.45l-178.97 0c-9.48,0 -17.6,-4.55 -22.55,-12.63 -4.95,-8.07 -5.33,-17.37 -1.03,-25.82l91.08 -178.98c4.65,-9.15 13.5,-14.52 23.77,-14.45 10.27,0.08 19.02,5.58 23.55,14.8zm438.77 181.78l-188.7 64.4c-8.87,3.02 -15.1,9.9 -17.22,19.05 -2.13,9.15 0.42,18.02 7.07,24.67l126.55 126.55c6.7,6.7 15.65,9.23 24.88,7.03 9.2,-2.23 16.05,-8.53 18.97,-17.55l62.15 -190.95c3.2,-9.75 0.73,-19.8 -6.57,-27.03 -7.33,-7.2 -17.4,-9.5 -27.13,-6.17zm217.1 473.47l-178.97 -87.9c-8.43,-4.12 -17.68,-3.67 -25.65,1.3 -7.98,4.98 -12.45,13.05 -12.45,22.45l0 178.97c0,9.48 4.55,17.58 12.62,22.55 8.08,4.93 17.38,5.33 25.83,1l178.97 -91.07c9.15,-4.63 14.5,-13.48 14.45,-23.75 -0.07,-10.27 -5.57,-19.02 -14.8,-23.55zm-182.42 487.85l-64.4 -188.7c-3.03,-8.88 -9.9,-15.1 -19.05,-17.23 -9.15,-2.12 -18.03,0.43 -24.68,7.08l-126.55 126.55c-6.7,6.7 -9.22,15.65 -7.02,24.87 2.22,9.2 8.52,16.05 17.55,18.98l190.95 62.15c9.75,3.2 19.8,0.72 27.02,-6.58 7.2,-7.32 9.5,-17.4 6.18,-27.12zm-473.48 217.1l87.88 -178.98c4.15,-8.42 3.67,-17.67 -1.28,-25.65 -4.97,-7.97 -13.05,-12.45 -22.45,-12.45l-178.97 0c-9.47,0 -17.6,4.55 -22.55,12.63 -4.95,8.07 -5.32,17.37 -1.02,25.82l91.07 178.98c4.65,9.15 13.5,14.52 23.77,14.45 10.28,-0.08 19.03,-5.58 23.55,-14.8zm-523.02 -216.65l64.43 -188.7c3,-8.88 9.9,-15.08 19.02,-17.23 9.15,-2.12 18.03,0.43 24.68,7.08l126.55 126.55c6.7,6.7 9.25,15.67 7.02,24.87 -2.2,9.2 -8.52,16.05 -17.52,18.98l-190.95 62.17c-9.78,3.18 -19.83,0.73 -27.05,-6.6 -7.2,-7.32 -9.5,-17.4 -6.18,-27.12zm-181.27 -488.32l179 -87.88c8.4,-4.17 17.65,-3.67 25.62,1.28 7.98,4.95 12.45,13.02 12.45,22.45l0 178.94c0,9.48 -4.55,17.63 -12.62,22.58 -8.08,4.95 -17.38,5.3 -25.8,1.02l-179 -91.07c-9.15,-4.65 -14.53,-13.5 -14.45,-23.77 0.07,-10.28 5.57,-19.03 14.8,-23.55zm678.97 -305.85c182.65,0 330.72,148.07 330.72,330.72 0,182.65 -148.07,330.72 -330.72,330.72 -182.65,0 -330.72,-148.07 -330.72,-330.72 0,-182.65 148.07,-330.72 330.72,-330.72z"/>
  <path class="fil1" d="M2465.14 742.69c0,-55.27 6.17,-108.77 18.52,-160.51 12.35,-51.74 32.04,-97.9 59.09,-138.47 27.05,-40.57 62.32,-72.9 105.83,-97.01 43.51,-24.11 96.43,-36.16 158.75,-36.16 62.33,0 115.24,12.05 158.75,36.16 43.51,24.11 78.79,56.44 105.84,97.01 27.04,40.57 46.74,86.73 59.09,138.47 12.34,51.74 18.52,105.24 18.52,160.51 0,52.92 -6.18,104.37 -18.52,154.34 -12.35,49.98 -32.05,94.96 -59.09,134.94 -27.05,39.98 -62.33,72.03 -105.84,96.13 -43.51,24.11 -96.42,36.16 -158.75,36.16 -62.32,0 -115.24,-12.05 -158.75,-36.16 -43.51,-24.1 -78.78,-56.15 -105.83,-96.13 -27.05,-39.98 -46.74,-84.96 -59.09,-134.94 -12.35,-49.97 -18.52,-101.42 -18.52,-154.34zm-276.93 0c0,91.73 14.11,177.27 42.33,256.65 28.22,79.37 68.79,148.46 121.71,207.26 52.92,58.79 117.89,104.95 194.91,138.46 77.02,33.52 163.75,50.27 260.17,50.27 97.61,0 184.62,-16.75 261.06,-50.27 76.43,-33.51 141.11,-79.67 194.03,-138.46 52.91,-58.8 93.48,-127.89 121.71,-207.26 28.22,-79.38 42.33,-164.92 42.33,-256.65 0,-94.07 -14.11,-181.38 -42.33,-261.93 -28.23,-80.56 -68.8,-150.82 -121.71,-210.79 -52.92,-59.97 -117.6,-107.01 -194.03,-141.11 -76.44,-34.1 -163.45,-51.15 -261.06,-51.15 -96.42,0 -183.15,17.05 -260.17,51.15 -77.02,34.1 -141.99,81.14 -194.91,141.11 -52.92,59.97 -93.49,130.23 -121.71,210.79 -28.22,80.55 -42.33,167.86 -42.33,261.93zm1860.91 460.38c-39.99,0 -74.09,-8.23 -102.31,-24.7 -28.22,-16.46 -50.86,-37.92 -67.91,-64.38 -17.05,-26.46 -29.4,-57.32 -37.04,-92.6 -7.65,-35.28 -11.47,-71.15 -11.47,-107.6 0,-37.63 3.53,-74.08 10.59,-109.36 7.05,-35.28 19.11,-66.44 36.16,-93.49 17.05,-27.04 39.39,-49.09 67.02,-66.14 27.64,-17.05 62.03,-25.58 103.19,-25.58 39.98,0 73.79,8.53 101.43,25.58 27.63,17.05 50.27,39.39 67.9,67.02 17.64,27.64 30.29,59.1 37.93,94.37 7.64,35.28 11.46,71.15 11.46,107.6 0,36.45 -3.52,72.32 -10.58,107.6 -7.06,35.28 -19.11,66.14 -36.16,92.6 -17.05,26.46 -39.39,47.92 -67.03,64.38 -27.63,16.47 -62.03,24.7 -103.18,24.7zm-460.38 -747.89l0 1231.19 250.47 0 0 -432.15 3.53 0c30.57,44.69 69.67,78.49 117.3,101.42 47.62,22.94 99.66,34.4 156.1,34.4 67.03,0 125.53,-12.93 175.51,-38.81 49.98,-25.87 91.72,-60.56 125.24,-104.06 33.51,-43.51 58.5,-93.49 74.96,-149.94 16.46,-56.44 24.7,-115.24 24.7,-176.38 0,-64.68 -8.24,-126.71 -24.7,-186.09 -16.46,-59.39 -41.74,-111.42 -75.85,-156.11 -34.1,-44.68 -77.02,-80.55 -128.76,-107.6 -51.74,-27.04 -113.48,-40.57 -185.21,-40.57 -56.44,0 -108.18,11.18 -155.22,33.52 -47.04,22.34 -85.84,58.21 -116.42,107.6l-3.52 0 0 -116.42 -238.13 0zm1691.57 358.07l-407.45 0c1.17,-17.64 4.99,-37.63 11.46,-59.97 6.47,-22.35 17.64,-43.51 33.51,-63.5 15.88,-19.99 37.05,-36.75 63.5,-50.27 26.46,-13.53 59.68,-20.29 99.66,-20.29 61.15,0 106.72,16.46 136.71,49.39 29.98,32.93 50.85,81.14 62.61,144.64zm-407.45 158.75l657.93 0c4.7,-70.56 -1.18,-138.17 -17.64,-202.85 -16.47,-64.67 -43.22,-122.3 -80.26,-172.86 -37.04,-50.56 -84.37,-90.84 -141.99,-120.83 -57.62,-29.98 -125.24,-44.98 -202.85,-44.98 -69.38,0 -132.59,12.35 -189.62,37.05 -57.03,24.69 -106.13,58.5 -147.28,101.42 -41.16,42.92 -72.91,93.78 -95.25,152.58 -22.35,58.79 -33.52,122.29 -33.52,190.5 0,70.55 10.88,135.23 32.63,194.02 21.76,58.8 52.63,109.37 92.61,151.7 39.98,42.33 88.78,74.96 146.4,97.89 57.62,22.94 122.3,34.4 194.03,34.4 103.48,0 191.68,-23.52 264.58,-70.56 72.91,-47.03 127,-125.23 162.28,-234.59l-220.49 0c-8.23,28.22 -30.57,54.97 -67.02,80.25 -36.46,25.29 -79.97,37.93 -130.53,37.93 -70.56,0 -124.65,-18.23 -162.28,-54.68 -37.63,-36.46 -58.21,-95.25 -61.73,-176.39zm806.09 -516.82l0 911.93 250.47 0 0 -478.01c0,-92.9 15.29,-159.64 45.86,-200.21 30.58,-40.57 79.97,-60.85 148.17,-60.85 59.97,0 101.72,18.52 125.24,55.56 23.52,37.04 35.27,93.19 35.27,168.45l0 515.06 250.48 0 0 -560.92c0,-56.44 -5,-107.89 -15,-154.34 -9.99,-46.45 -27.34,-85.84 -52.03,-118.18 -24.7,-32.34 -58.5,-57.62 -101.42,-75.85 -42.93,-18.22 -97.9,-27.34 -164.93,-27.34 -52.92,0 -104.66,12.06 -155.22,36.16 -50.57,24.11 -91.72,62.62 -123.47,115.54l-5.29 0 0 -127 -238.13 0zm2271.89 911.93l338.67 -1259.42 -271.64 0 -206.37 867.84 -3.53 0 -215.2 -867.84 -259.29 0 -218.72 857.25 -3.53 0 -199.32 -857.25 -276.93 0 333.38 1259.42 280.46 0 209.9 -857.25 3.53 0 213.43 857.25 275.16 0zm952.5 -553.86l-407.45 0c1.17,-17.64 4.99,-37.63 11.46,-59.97 6.47,-22.35 17.64,-43.51 33.51,-63.5 15.88,-19.99 37.05,-36.75 63.5,-50.27 26.46,-13.53 59.68,-20.29 99.66,-20.29 61.15,0 106.72,16.46 136.71,49.39 29.98,32.93 50.85,81.14 62.61,144.64zm-407.45 158.75l657.93 0c4.7,-70.56 -1.18,-138.17 -17.64,-202.85 -16.47,-64.67 -43.22,-122.3 -80.26,-172.86 -37.04,-50.56 -84.37,-90.84 -141.99,-120.83 -57.62,-29.98 -125.24,-44.98 -202.85,-44.98 -69.38,0 -132.59,12.35 -189.62,37.05 -57.03,24.69 -106.13,58.5 -147.28,101.42 -41.16,42.92 -72.91,93.78 -95.25,152.58 -22.35,58.79 -33.52,122.29 -33.52,190.5 0,70.55 10.88,135.23 32.63,194.02 21.76,58.8 52.63,109.37 92.61,151.7 39.98,42.33 88.78,74.96 146.4,97.89 57.62,22.94 122.3,34.4 194.03,34.4 103.48,0 191.68,-23.52 264.58,-70.56 72.91,-47.03 127,-125.23 162.28,-234.59l-220.49 0c-8.23,28.22 -30.57,54.97 -67.02,80.25 -36.46,25.29 -79.97,37.93 -130.53,37.93 -70.56,0 -124.65,-18.23 -162.28,-54.68 -37.63,-36.46 -58.21,-95.25 -61.73,-176.39zm795.51 -236.36c3.52,-58.8 18.22,-107.6 44.09,-146.41 25.87,-38.8 58.8,-69.96 98.78,-93.48 39.98,-23.52 84.96,-40.28 134.94,-50.27 49.98,-10 100.25,-15 150.81,-15 45.86,0 92.31,3.24 139.35,9.71 47.04,6.46 89.96,19.1 128.76,37.92 38.81,18.81 70.56,44.98 95.25,78.49 24.7,33.52 37.05,77.91 37.05,133.18l0 474.48c0,41.16 2.35,80.55 7.05,118.18 4.7,37.63 12.94,65.86 24.7,84.67l-254.01 0c-4.7,-14.11 -8.52,-28.52 -11.46,-43.22 -2.94,-14.69 -5,-29.69 -6.17,-44.97 -39.99,41.15 -87.02,69.96 -141.12,86.43 -54.09,16.46 -109.36,24.69 -165.8,24.69 -43.51,0 -84.08,-5.29 -121.71,-15.87 -37.63,-10.59 -70.55,-27.05 -98.78,-49.39 -28.22,-22.35 -50.27,-50.57 -66.14,-84.67 -15.88,-34.1 -23.82,-74.67 -23.82,-121.71 0,-51.74 9.12,-94.37 27.34,-127.88 18.23,-33.51 41.75,-60.27 70.56,-80.26 28.81,-19.99 61.74,-34.98 98.78,-44.98 37.04,-9.99 74.38,-17.93 112.01,-23.81 37.62,-5.88 74.67,-10.58 111.12,-14.11 36.45,-3.53 68.79,-8.82 97.01,-15.88 28.23,-7.05 50.57,-17.34 67.03,-30.86 16.47,-13.53 24.11,-33.22 22.93,-59.09 0,-27.05 -4.41,-48.51 -13.23,-64.39 -8.82,-15.87 -20.58,-28.22 -35.27,-37.04 -14.7,-8.82 -31.75,-14.7 -51.16,-17.64 -19.4,-2.94 -40.27,-4.41 -62.62,-4.41 -49.38,0 -88.19,10.59 -116.41,31.75 -28.22,21.17 -44.69,56.45 -49.39,105.84l-250.47 0zm578.55 185.21c-10.58,9.4 -23.81,16.75 -39.68,22.04 -15.88,5.3 -32.93,9.71 -51.16,13.23 -18.22,3.53 -37.33,6.47 -57.32,8.82 -19.99,2.35 -39.99,5.29 -59.98,8.82 -18.81,3.53 -37.33,8.23 -55.56,14.11 -18.23,5.88 -34.1,13.82 -47.62,23.82 -13.53,9.99 -24.4,22.63 -32.64,37.92 -8.23,15.29 -12.34,34.69 -12.34,58.21 0,22.34 4.11,41.16 12.34,56.44 8.24,15.29 19.41,27.34 33.52,36.16 14.11,8.82 30.57,15 49.39,18.52 18.81,3.53 38.21,5.29 58.21,5.29 49.38,0 87.6,-8.23 114.65,-24.69 27.04,-16.46 47.04,-36.16 59.97,-59.09 12.94,-22.93 20.87,-46.15 23.81,-69.67 2.94,-23.52 4.41,-42.34 4.41,-56.45l0 -93.48zm762 -465.67l0 -273.4 -250.47 0 0 273.4 -151.7 0 0 167.57 151.7 0 0 537.98c0,45.87 7.64,82.91 22.93,111.13 15.29,28.22 36.16,49.98 62.62,65.26 26.45,15.29 57.03,25.58 91.72,30.87 34.69,5.29 71.44,7.94 110.24,7.94 24.7,0 49.98,-0.59 75.85,-1.76 25.87,-1.18 49.39,-3.53 70.55,-7.06l0 -194.03c-11.75,2.35 -24.1,4.12 -37.04,5.29 -12.93,1.18 -26.46,1.77 -40.57,1.77 -42.33,0 -70.55,-7.06 -84.66,-21.17 -14.11,-14.11 -21.17,-42.33 -21.17,-84.67l0 -451.55 183.44 0 0 -167.57 -183.44 0zm303.39 -347.49l0 1259.42 250.47 0 0 -478.01c0,-92.9 15.29,-159.64 45.86,-200.21 30.58,-40.57 79.97,-60.85 148.17,-60.85 59.97,0 101.72,18.52 125.24,55.56 23.52,37.04 35.27,93.19 35.27,168.45l0 515.06 250.48 0 0 -560.92c0,-56.44 -5,-107.89 -15,-154.34 -9.99,-46.45 -27.34,-85.84 -52.03,-118.18 -24.7,-32.34 -58.5,-57.62 -101.42,-75.85 -42.93,-18.22 -97.9,-27.34 -164.93,-27.34 -47.04,0 -95.25,12.06 -144.64,36.16 -49.39,24.11 -89.96,62.62 -121.71,115.54l-5.29 0 0 -474.49 -250.47 0zm1659.82 705.56l-407.45 0c1.17,-17.64 4.99,-37.63 11.46,-59.97 6.47,-22.35 17.64,-43.51 33.51,-63.5 15.88,-19.99 37.05,-36.75 63.5,-50.27 26.46,-13.53 59.68,-20.29 99.66,-20.29 61.15,0 106.72,16.46 136.71,49.39 29.98,32.93 50.85,81.14 62.61,144.64zm-407.45 158.75l657.93 0c4.7,-70.56 -1.18,-138.17 -17.64,-202.85 -16.47,-64.67 -43.22,-122.3 -80.26,-172.86 -37.04,-50.56 -84.37,-90.84 -141.99,-120.83 -57.62,-29.98 -125.24,-44.98 -202.85,-44.98 -69.38,0 -132.59,12.35 -189.62,37.05 -57.03,24.69 -106.13,58.5 -147.28,101.42 -41.16,42.92 -72.91,93.78 -95.25,152.58 -22.35,58.79 -33.52,122.29 -33.52,190.5 0,70.55 10.88,135.23 32.63,194.02 21.76,58.8 52.63,109.37 92.61,151.7 39.98,42.33 88.78,74.96 146.4,97.89 57.62,22.94 122.3,34.4 194.03,34.4 103.48,0 191.68,-23.52 264.58,-70.56 72.91,-47.03 127,-125.23 162.28,-234.59l-220.49 0c-8.23,28.22 -30.57,54.97 -67.02,80.25 -36.46,25.29 -79.97,37.93 -130.53,37.93 -70.56,0 -124.65,-18.23 -162.28,-54.68 -37.63,-36.46 -58.21,-95.25 -61.73,-176.39zm806.09 -516.82l0 911.93 250.47 0 0 -410.99c0,-41.15 4.12,-79.37 12.35,-114.65 8.23,-35.28 22.05,-66.15 41.45,-92.6 19.4,-26.46 44.98,-47.33 76.73,-62.62 31.75,-15.29 70.56,-22.93 116.42,-22.93 15.28,0 31.16,0.88 47.62,2.64 16.47,1.77 30.58,3.83 42.34,6.18l0 -232.84c-20,-5.88 -38.22,-8.82 -54.69,-8.82 -31.75,0 -62.32,4.71 -91.72,14.12 -29.4,9.4 -57.03,22.63 -82.9,39.68 -25.87,17.05 -48.8,37.63 -68.79,61.74 -19.99,24.11 -35.87,50.27 -47.63,78.49l-3.52 0 0 -169.33 -238.13 0zm712.61 -347.49l0 1259.42 259.29 0 0 -883.71 3.53 0 308.68 883.71 213.43 0 308.68 -892.53 3.53 0 0 892.53 259.29 0 0 -1259.42 -389.82 0 -278.69 866.07 -3.53 0 -294.57 -866.07 -389.82 0zm1562.81 627.95c3.52,-58.8 18.22,-107.6 44.09,-146.41 25.87,-38.8 58.8,-69.96 98.78,-93.48 39.98,-23.52 84.96,-40.28 134.94,-50.27 49.98,-10 100.25,-15 150.81,-15 45.86,0 92.31,3.24 139.35,9.71 47.04,6.46 89.96,19.1 128.76,37.92 38.81,18.81 70.56,44.98 95.25,78.49 24.7,33.52 37.05,77.91 37.05,133.18l0 474.48c0,41.16 2.35,80.55 7.05,118.18 4.7,37.63 12.94,65.86 24.7,84.67l-254.01 0c-4.7,-14.11 -8.52,-28.52 -11.46,-43.22 -2.94,-14.69 -5,-29.69 -6.17,-44.97 -39.99,41.15 -87.02,69.96 -141.12,86.43 -54.09,16.46 -109.36,24.69 -165.8,24.69 -43.51,0 -84.08,-5.29 -121.71,-15.87 -37.63,-10.59 -70.55,-27.05 -98.78,-49.39 -28.22,-22.35 -50.27,-50.57 -66.14,-84.67 -15.88,-34.1 -23.82,-74.67 -23.82,-121.71 0,-51.74 9.12,-94.37 27.34,-127.88 18.23,-33.51 41.75,-60.27 70.56,-80.26 28.81,-19.99 61.74,-34.98 98.78,-44.98 37.04,-9.99 74.38,-17.93 112.01,-23.81 37.62,-5.88 74.67,-10.58 111.12,-14.11 36.45,-3.53 68.79,-8.82 97.01,-15.88 28.23,-7.05 50.57,-17.34 67.03,-30.86 16.47,-13.53 24.11,-33.22 22.93,-59.09 0,-27.05 -4.41,-48.51 -13.23,-64.39 -8.82,-15.87 -20.58,-28.22 -35.27,-37.04 -14.7,-8.82 -31.75,-14.7 -51.16,-17.64 -19.4,-2.94 -40.27,-4.41 -62.62,-4.41 -49.38,0 -88.19,10.59 -116.41,31.75 -28.22,21.17 -44.69,56.45 -49.39,105.84l-250.47 0zm578.55 185.21c-10.58,9.4 -23.81,16.75 -39.68,22.04 -15.88,5.3 -32.93,9.71 -51.16,13.23 -18.22,3.53 -37.33,6.47 -57.32,8.82 -19.99,2.35 -39.99,5.29 -59.98,8.82 -18.81,3.53 -37.33,8.23 -55.56,14.11 -18.23,5.88 -34.1,13.82 -47.62,23.82 -13.53,9.99 -24.4,22.63 -32.64,37.92 -8.23,15.29 -12.34,34.69 -12.34,58.21 0,22.34 4.11,41.16 12.34,56.44 8.24,15.29 19.41,27.34 33.52,36.16 14.11,8.82 30.57,15 49.39,18.52 18.81,3.53 38.21,5.29 58.21,5.29 49.38,0 87.6,-8.23 114.65,-24.69 27.04,-16.46 47.04,-36.16 59.97,-59.09 12.94,-22.93 20.87,-46.15 23.81,-69.67 2.94,-23.52 4.41,-42.34 4.41,-56.45l0 -93.48zm904.88 282.22c-39.99,0 -74.09,-8.23 -102.31,-24.7 -28.22,-16.46 -50.86,-37.92 -67.91,-64.38 -17.05,-26.46 -29.4,-57.32 -37.04,-92.6 -7.65,-35.28 -11.47,-71.15 -11.47,-107.6 0,-37.63 3.53,-74.08 10.59,-109.36 7.05,-35.28 19.11,-66.44 36.16,-93.49 17.05,-27.04 39.39,-49.09 67.02,-66.14 27.64,-17.05 62.03,-25.58 103.19,-25.58 39.98,0 73.79,8.53 101.43,25.58 27.63,17.05 50.27,39.39 67.9,67.02 17.64,27.64 30.29,59.1 37.93,94.37 7.64,35.28 11.46,71.15 11.46,107.6 0,36.45 -3.52,72.32 -10.58,107.6 -7.06,35.28 -19.11,66.14 -36.16,92.6 -17.05,26.46 -39.39,47.92 -67.03,64.38 -27.63,16.47 -62.03,24.7 -103.18,24.7zm-460.38 -747.89l0 1231.19 250.47 0 0 -432.15 3.53 0c30.57,44.69 69.67,78.49 117.3,101.42 47.62,22.94 99.66,34.4 156.1,34.4 67.03,0 125.53,-12.93 175.51,-38.81 49.98,-25.87 91.72,-60.56 125.24,-104.06 33.51,-43.51 58.5,-93.49 74.96,-149.94 16.46,-56.44 24.7,-115.24 24.7,-176.38 0,-64.68 -8.24,-126.71 -24.7,-186.09 -16.46,-59.39 -41.74,-111.42 -75.85,-156.11 -34.1,-44.68 -77.02,-80.55 -128.76,-107.6 -51.74,-27.04 -113.48,-40.57 -185.21,-40.57 -56.44,0 -108.18,11.18 -155.22,33.52 -47.04,22.34 -85.84,58.21 -116.42,107.6l-3.52 0 0 -116.42 -238.13 0z"/>
 </g>
</svg>
