<?xml version="1.0" encoding="UTF-8"?>
<!DOCTYPE svg PUBLIC "-//W3C//DTD SVG 1.1//EN" "http://www.w3.org/Graphics/SVG/1.1/DTD/svg11.dtd">
<!-- Creator: CorelDRAW -->
<svg xmlns="http://www.w3.org/2000/svg" xml:space="preserve" width="17.6388mm" height="17.6388mm" version="1.1" style="shape-rendering:geometricPrecision; text-rendering:geometricPrecision; image-rendering:optimizeQuality; fill-rule:evenodd; clip-rule:evenodd"
viewBox="0 0 1763.88 1763.88"
 xmlns:xlink="http://www.w3.org/1999/xlink"
 xmlns:xodm="http://www.corel.com/coreldraw/odm/2003">
 <defs>
  <style type="text/css">
   <![CDATA[
    .fil0 {fill:white;fill-rule:nonzero}
    .fil1 {fill:#516F86;fill-rule:nonzero}
   ]]>
  </style>
 </defs>
 <g id="Слой_x0020_1">
  <metadata id="CorelCorpID_0Corel-Layer"/>
  <path class="fil0" d="M1180.59 681.36c119.35,-2.1 206.06,45.15 260.14,141.75 79.54,142.02 23.1,329.44 -128.63,392.7 -37.62,15.75 -86.01,23.46 -145.16,23.1 -212.97,-1.22 -428.05,-1.13 -645.22,0.27 -323.14,2.1 -340.99,-428.4 -42.27,-458.85 10.46,-1.09 19.33,-7.46 23.46,-16.72 107.53,-230.3 372.66,-306.16 578.72,-156.53 26.77,19.42 47.25,50.66 74.55,67.46 7.52,4.73 15.66,7 24.41,6.82z"/>
  <path class="fil1" d="M538.78 860.39c-9.45,0.35 -18.73,-0.88 -27.83,-3.68 -8.05,-2.45 -16.27,-2.97 -24.67,-1.57 -145.43,23.62 -205.8,203.44 -69.3,286.65 26.07,15.92 68.86,24.06 128.36,24.41 193.73,1.23 392.96,1.32 597.71,0.26 69.13,-0.52 120.4,-9.8 153.83,-27.82 214.46,-115.76 76.39,-438.9 -155.4,-373.28 -8.56,2.5 -17.8,-0.9 -22.84,-8.39 -160.91,-240.46 -491.14,-184.02 -563.85,90.82 -2.1,8.05 -7.44,12.25 -16.01,12.6z"/>
 </g>
</svg>
