<?xml version="1.0" encoding="UTF-8"?>
<!DOCTYPE svg PUBLIC "-//W3C//DTD SVG 1.1//EN" "http://www.w3.org/Graphics/SVG/1.1/DTD/svg11.dtd">
<!-- Creator: CorelDRAW -->
<svg xmlns="http://www.w3.org/2000/svg" xml:space="preserve" width="17.6388mm" height="17.6388mm" version="1.1" style="shape-rendering:geometricPrecision; text-rendering:geometricPrecision; image-rendering:optimizeQuality; fill-rule:evenodd; clip-rule:evenodd"
viewBox="0 0 1763.88 1763.88"
 xmlns:xlink="http://www.w3.org/1999/xlink"
 xmlns:xodm="http://www.corel.com/coreldraw/odm/2003">
 <defs>
  <style type="text/css">
   <![CDATA[
    .fil0 {fill:white;fill-rule:nonzero}
    .fil1 {fill:#264B68;fill-rule:nonzero}
    .fil2 {fill:#516F86;fill-rule:nonzero}
   ]]>
  </style>
 </defs>
 <g id="Слой_x0020_1">
  <metadata id="CorelCorpID_0Corel-Layer"/>
  <path class="fil0" d="M748.5 623.25c122.15,-170.1 279.3,-221.9 471.45,-155.4 58.8,20.48 111.3,66.94 152.25,113.66 7.35,8.4 16.71,12.52 28.09,12.34 154.35,-2.45 252.09,69.13 293.21,214.73 21.87,77.7 6.04,152.95 -47.51,225.75 -103.43,140.7 -239.67,118.38 -392.18,118.38 -10.63,0.02 -20.36,6.01 -25.18,15.49 -55.93,109.99 -152.53,166.69 -275.64,164.07 -214.2,-4.38 -432.34,-3.59 -654.42,2.36 -316.57,8.4 -348.33,-426.57 -50.4,-461.48 10.5,-1.22 18.64,-6.3 24.42,-15.22 19.95,-29.67 33.33,-64.84 56.44,-92.4 100.97,-120.23 232.66,-164.42 395.06,-132.57 10.15,1.93 18.29,-1.31 24.41,-9.71z"/>
  <path class="fil1" d="M791.42 663.35c-0.56,-0.01 -1.13,-0.02 -1.71,0.06l-0.25 0.03 0.26 -0.02c0.58,-0.08 1.14,-0.08 1.7,-0.07z"/>
  <path class="fil2" d="M590.21 697.8c-137.37,25.73 -224.79,105.88 -262.24,240.45 -2.8,9.8 -9.18,13.56 -19.16,11.29 -172.46,-39.64 -271.68,200.29 -113.66,287.44 25.9,14.52 64.58,21.7 116.02,21.52 230.13,0 452.99,0.18 668.59,0.53 104.21,0.26 205.54,-106.32 198.19,-214.47 -6.83,-96.95 -61.08,-161.52 -162.75,-193.72 -32.9,-10.5 -64.84,-8.57 -95.81,5.77 -11.03,5.25 -19.78,2.72 -26.25,-7.61 -49.88,-77.87 -120.23,-127.75 -211.05,-149.62l-91.88 -1.58z"/>
  <path class="fil1" d="M1480.02 1116.53c-1.9,0.47 -3.8,0.89 -5.66,1.3l-3.67 0.73 3.88 -0.76c1.82,-0.4 3.64,-0.81 5.45,-1.27z"/>
  <path class="fil2" d="M1393.2 663.41c-12.6,8.4 -23.19,13.39 -31.76,14.97 -7.7,1.4 -13.74,-1.14 -18.12,-7.62 -137.02,-201.33 -381.67,-209.73 -525.26,-15.22 -6.47,8.57 -4.99,15.49 4.46,20.74 40.43,22.4 75.52,52.15 105.27,89.25 6.65,8.22 15.22,11.81 25.72,10.76 167.74,-17.06 304.5,121.54 298.46,284.55 -0.35,9.45 4.2,14.52 13.65,15.22 106.58,7.7 178.15,4.2 214.73,-10.5 217.61,-87.41 184.8,-353.32 -38.59,-400.05l-48.56 -2.1z"/>
 </g>
</svg>
